<svg width="23" height="21" viewBox="0 0 23 21" fill="none" xmlns="http://www.w3.org/2000/svg">
<path fill-rule="evenodd" clip-rule="evenodd" d="M3.85939 15.8245L3.33196 17.7776C3.20392 18.2511 3.91558 18.441 4.04288 17.9698L4.5705 16.0166C4.6978 15.5467 3.98614 15.3538 3.85939 15.8245Z" fill="#1D1D1B"/>
<path fill-rule="evenodd" clip-rule="evenodd" d="M6.62849 9.47661C7.71873 8.17709 10.0921 3.90531 11.1687 3.90531C11.4458 3.90531 12.2626 4.01695 12.926 4.2277C8.55216 8.59086 10.9815 6.1744 4.95187 12.1558C4.85902 12.2473 4.84023 12.3768 4.80725 12.5012C4.62948 12.2473 4.46533 11.8564 4.64808 11.401C4.96698 10.6065 6.05224 10.1647 6.62849 9.47661ZM17.3229 0.882195L18.7011 2.2005C14.8403 6.03033 16.2076 4.6761 12.3446 8.50741C11.8999 8.5297 10.5296 8.60081 9.49851 8.68371C10.5469 7.64303 8.87602 9.30749 17.3229 0.882195ZM14.2869 14.1032C14.3436 13.7318 14.2552 13.2611 14.1306 12.9072C14.3711 12.9028 15.603 13.4468 15.8456 13.5526C15.4217 13.8578 14.7762 14.0809 14.2869 14.1032ZM10.8981 14.2664C11.34 13.9341 11.6372 13.4448 11.7285 12.8993L13.3341 12.9151C13.5153 13.3361 13.6758 13.8318 13.4673 14.2399C12.8943 15.2863 11.4809 15.2705 10.8981 14.2664ZM7.17269 11.0024C7.25688 11.6147 7.67783 12.3157 8.16068 12.6574L7.62164 13.1915L6.28454 11.871C7.31878 10.8454 7.04889 11.1074 7.17269 11.0024ZM6.88327 13.924L5.06406 14.3875L5.5412 12.6084L5.76135 12.3897L7.09845 13.7103L6.88327 13.924ZM10.2347 13.8175L10.2339 13.8182H10.2332C9.63005 14.1297 8.89187 13.9809 8.45636 13.4592L9.06522 12.8553C9.30416 12.8676 9.81575 12.879 10.9773 12.8914C10.8743 13.2928 10.6039 13.6303 10.2347 13.8175ZM21.7385 20.2631H0.850676L3.41323 10.8677H4.09044C3.57369 11.7759 3.89332 12.7589 4.58047 13.3468L4.18973 14.804C4.11918 15.0711 4.36106 15.3265 4.63666 15.2566L7.12792 14.622C7.20364 14.6106 7.27327 14.5745 7.32725 14.5212L7.90664 13.947C8.43554 14.5658 9.31779 14.9107 10.2439 14.6069C10.7002 15.392 11.4106 15.7583 12.1827 15.7583C12.8792 15.7583 13.5594 15.4208 13.9717 14.827C14.9871 14.9422 16.2385 14.2996 16.5875 13.8808C17.5878 14.3219 18.4089 14.8329 21.7343 14.8718H21.7378C22.2229 14.8718 22.2264 14.1406 21.7422 14.1349C16.8537 14.078 16.5939 12.6322 14.2364 12.1573L14.2336 12.1565C13.3563 11.9839 10.3203 12.2523 8.99982 12.1141C8.28651 11.9421 7.80734 11.2571 7.90019 10.5505V10.5475C7.99451 9.96812 8.36222 9.57462 8.56653 9.5234C8.56653 9.5234 11.992 9.29165 17.0812 8.74119C17.5655 8.68868 17.4855 7.95824 17.0012 8.00871L13.5126 8.38637C15.262 6.65061 16.1449 5.77352 16.3312 5.58856C18.1066 6.04341 21.7378 7.31069 21.7378 7.31069C22.1508 7.31069 22.2501 6.72762 21.8566 6.59314C20.469 6.11968 18.8551 5.50364 16.9386 4.98541L19.4875 2.45749C19.6566 2.28764 19.6165 2.05294 19.4833 1.92932L17.5719 0.101454C17.4281 -0.0374509 17.1956 -0.03174 17.0574 0.106428L13.5024 3.652C12.6749 3.31892 11.5148 3.16841 11.1687 3.16841C9.53149 3.16841 7.34678 7.47317 6.06366 9.00315C5.75637 9.36939 5.20297 9.68902 4.70869 10.1308H3.13192C2.96575 10.1308 2.8204 10.2424 2.77637 10.4029L0.0130099 20.5352C-0.0172028 20.6459 0.00582518 20.764 0.075646 20.8554C0.145467 20.9468 0.253422 21 0.368562 21H21.7385C22.2251 21 22.2258 20.2631 21.7385 20.2631Z" fill="#1D1D1B"/>
</svg>
