<svg width="330" height="294" viewBox="0 0 330 294" fill="none" xmlns="http://www.w3.org/2000/svg">
<path d="M197.375 35.2574L213.821 51.7025" stroke="#FF9300" stroke-width="3" stroke-linecap="round"/>
<path d="M196.357 43.9969L212.802 60.4419" stroke="#FF9300" stroke-width="3" stroke-linecap="round"/>
<path d="M195.339 51.7185L211.784 68.1635" stroke="#FF9300" stroke-width="3" stroke-linecap="round"/>
<path d="M307.98 142.272L324.425 158.717" stroke="#FF9300" stroke-width="3" stroke-linecap="round"/>
<path d="M311.034 154.066L327.479 170.511" stroke="#FF9300" stroke-width="3" stroke-linecap="round"/>
<path d="M312.053 164.841L328.498 181.287" stroke="#FF9300" stroke-width="3" stroke-linecap="round"/>
<path d="M1.50254 260.038L16.4522 277.854" stroke="#FF9300" stroke-width="3" stroke-linecap="round"/>
<path d="M20.5644 268.811L35.5141 286.627" stroke="#FF9300" stroke-width="3" stroke-linecap="round"/>
<path d="M1.56856 274.595L16.5183 292.411" stroke="#FF9300" stroke-width="3" stroke-linecap="round"/>
<path fill-rule="evenodd" clip-rule="evenodd" d="M267.844 121.421C272.968 123.394 275.522 129.147 273.548 134.271C271.574 139.394 265.822 141.948 260.698 139.974C255.575 138.001 253.021 132.248 254.994 127.125C256.968 122.001 262.721 119.448 267.844 121.421Z" fill="#FF9300"/>
<path fill-rule="evenodd" clip-rule="evenodd" d="M249.796 147.637C252.452 148.661 253.776 151.643 252.753 154.3C251.73 156.956 248.747 158.28 246.09 157.257C243.434 156.234 242.109 153.251 243.132 150.594C244.156 147.938 247.139 146.614 249.796 147.637Z" fill="#FF9300"/>
<path fill-rule="evenodd" clip-rule="evenodd" d="M241.621 112.666C245.417 114.128 247.308 118.389 245.846 122.184C244.384 125.979 240.123 127.87 236.328 126.409C232.533 124.947 230.641 120.686 232.103 116.89C233.565 113.095 237.826 111.204 241.621 112.666Z" fill="#FF9300"/>
<path fill-rule="evenodd" clip-rule="evenodd" d="M71.377 245.994C71.4014 252.526 66.1267 257.842 59.5943 257.866C53.0618 257.891 47.7464 252.616 47.7215 246.084C47.6965 239.551 52.9718 234.236 59.5042 234.211C66.0361 234.187 71.3521 239.461 71.377 245.994Z" fill="#FF9300"/>
<path fill-rule="evenodd" clip-rule="evenodd" d="M43.1086 237.591C43.1211 240.993 40.3739 243.762 36.9715 243.775C33.5686 243.788 30.8003 241.04 30.7867 237.638C30.7743 234.235 33.522 231.466 36.9243 231.453C40.3267 231.441 43.0956 234.188 43.1086 237.591Z" fill="#FF9300"/>
<path fill-rule="evenodd" clip-rule="evenodd" d="M46.1603 216.658C46.1679 218.62 44.5831 220.218 42.6202 220.225C40.6579 220.233 39.0605 218.647 39.0529 216.685C39.0459 214.722 40.6307 213.125 42.5931 213.118C44.556 213.11 46.1533 214.695 46.1603 216.658Z" fill="#FF9300"/>
<path fill-rule="evenodd" clip-rule="evenodd" d="M70.7989 219.153C70.8168 223.859 67.0174 227.687 62.3123 227.705C57.6071 227.723 53.7789 223.923 53.7605 219.218C53.7426 214.513 57.542 210.685 62.2472 210.667C66.9523 210.649 70.781 214.448 70.7989 219.153Z" fill="#FF9300"/>
<path fill-rule="evenodd" clip-rule="evenodd" d="M99.217 41.6557C92.8283 43.0166 86.5459 38.9406 85.1845 32.5513C83.8236 26.1626 87.8996 19.8801 94.2884 18.5193C100.678 17.1579 106.96 21.2339 108.321 27.6227C109.682 34.0119 105.606 40.2944 99.217 41.6557Z" fill="#FF9300"/>
<path fill-rule="evenodd" clip-rule="evenodd" d="M101.815 12.1877C98.488 12.8966 95.2152 10.7737 94.5063 7.44614C93.7974 4.11753 95.9203 0.84587 99.2484 0.136432C102.576 -0.572463 105.849 1.55043 106.558 4.87849C107.266 8.20656 105.144 11.4788 101.815 12.1877Z" fill="#FF9300"/>
<path fill-rule="evenodd" clip-rule="evenodd" d="M141.7 20.3768C138.82 20.9908 135.987 19.1526 135.374 16.2726C134.76 13.3925 136.598 10.5602 139.478 9.94623C142.358 9.33279 145.191 11.1704 145.804 14.051C146.417 16.9316 144.58 19.7634 141.7 20.3768Z" fill="#FF9300"/>
<path fill-rule="evenodd" clip-rule="evenodd" d="M122.772 10.97C120.852 11.3784 118.965 10.1537 118.556 8.23477C118.147 6.31473 119.372 4.42723 121.291 4.01882C123.211 3.60932 125.098 4.83402 125.508 6.75352C125.916 8.67301 124.692 10.5611 122.772 10.97Z" fill="#FF9300"/>
<path fill-rule="evenodd" clip-rule="evenodd" d="M125.371 35.5975C120.77 36.5781 116.245 33.6422 115.264 29.0406C114.284 24.4385 117.219 19.9128 121.821 18.9333C126.423 17.9532 130.949 20.8886 131.929 25.4907C132.908 30.0923 129.973 34.6169 125.371 35.5975Z" fill="#FF9300"/>
</svg>
