<svg width="24" height="24" viewBox="0 0 24 24" fill="none" xmlns="http://www.w3.org/2000/svg">
<mask id="mask0_7_7306" style="mask-type:luminance" maskUnits="userSpaceOnUse" x="0" y="0" width="24" height="24">
<path fill-rule="evenodd" clip-rule="evenodd" d="M0 0H23.9999V24H0V0Z" fill="white"/>
</mask>
<g mask="url(#mask0_7_7306)">
<path fill-rule="evenodd" clip-rule="evenodd" d="M24 12.0001C24 18.6292 18.6289 24.0002 11.9999 24.0002C5.37181 24.0002 -0.000244143 18.6292 -0.000244143 12.0001C-0.000244143 5.37105 5.37181 0 11.9999 0C18.6289 0 24 5.37105 24 12.0001Z" fill="#50B748"/>
</g>
<path fill-rule="evenodd" clip-rule="evenodd" d="M15.4642 10.5039C15.3702 10.5119 15.2802 10.5469 15.2022 10.6059L11.5501 13.3479L9.8591 11.6519C9.4911 11.2739 8.77009 11.9919 9.15209 12.3589L11.1521 14.3589C11.3271 14.5309 11.6021 14.5509 11.8051 14.4059L15.8052 11.4059C16.1412 11.1639 15.9342 10.5119 15.5162 10.5039H15.4642ZM12.5031 5.99982C14.1671 5.99982 15.8272 6.63682 17.1022 7.90584C18.3192 9.12485 19.0072 10.7769 19.0072 12.5039C19.0072 14.2309 18.3192 15.8829 17.1022 17.1019C15.8822 18.3199 14.2311 19.0079 12.5031 19.0079C10.7771 19.0079 9.12409 18.3199 7.90508 17.1019C6.68707 15.8829 6.00006 14.2309 6.00006 12.5039C6.00006 10.7769 6.68707 9.12485 7.90508 7.90584C9.12409 6.68382 10.7801 5.99982 12.5031 5.99982Z" fill="white"/>
</svg>
