<svg width="15" height="20" viewBox="0 0 15 20" fill="none" xmlns="http://www.w3.org/2000/svg">
<path fill-rule="evenodd" clip-rule="evenodd" d="M13.3214 8.64291H12.0687V5.97183C12.0687 3.38301 9.93797 1.25266 7.34999 1.25266C4.76158 1.25266 2.63081 3.38301 2.63081 5.97183V8.64291H1.37816V5.97183C1.37816 2.6715 4.05216 0 7.34999 0C10.6478 0 13.3214 2.6715 13.3214 5.97183V8.64291Z" fill="#545454"/>
<path fill-rule="evenodd" clip-rule="evenodd" d="M2.00467 9.31197C1.63012 9.31197 1.33784 9.60384 1.33784 9.9788V17.9971C1.33784 18.3724 1.63012 18.6643 2.00467 18.6643H12.6953C13.0698 18.6643 13.3617 18.3724 13.3617 17.9971V9.9788C13.3617 9.60384 13.0698 9.31197 12.6953 9.31197H2.00467ZM12.6953 20.0001H2.00467C0.920285 20.0001 0 19.0819 0 17.9971V9.9788C0 8.89442 0.920285 7.97622 2.00467 7.97622H12.6953C13.7792 7.97622 14.6995 8.89442 14.6995 9.9788V17.9971C14.6995 19.1244 13.7792 20.0001 12.6953 20.0001Z" fill="#545454"/>
<path fill-rule="evenodd" clip-rule="evenodd" d="M8.68547 11.9836C8.68547 12.7356 8.10215 13.3194 7.34972 13.3194C6.59771 13.3194 6.01439 12.7356 6.01439 11.9836C6.01439 11.2316 6.59771 10.6479 7.34972 10.6479C8.10215 10.6479 8.68547 11.2742 8.68547 11.9836Z" fill="#545454"/>
<path fill-rule="evenodd" clip-rule="evenodd" d="M7.68443 11.9836H7.0151L6.34869 15.9929H8.35126L7.68443 11.9836Z" fill="#545454"/>
</svg>
