<svg width="24" height="13" viewBox="0 0 24 13" fill="none" xmlns="http://www.w3.org/2000/svg">
<mask id="mask0_7_8888" style="mask-type:luminance" maskUnits="userSpaceOnUse" x="0" y="0" width="24" height="13">
<path fill-rule="evenodd" clip-rule="evenodd" d="M0 0H24V12.9997H0V0Z" fill="white"/>
</mask>
<g mask="url(#mask0_7_8888)">
<path fill-rule="evenodd" clip-rule="evenodd" d="M9.49994 13C9.22294 13 8.99994 12.772 8.99994 12.5V1.50001C8.99994 1.223 9.22294 1 9.49994 1C9.77695 1 9.99995 1.223 9.99995 1.50001V12.5C9.99995 12.772 9.77695 13 9.49994 13ZM6.49993 13C6.22293 13 5.99993 12.772 5.99993 12.5V5.50002C5.99993 5.22302 6.22293 5.00002 6.49993 5.00002C6.77693 5.00002 6.99994 5.22302 6.99994 5.50002V12.5C6.99994 12.772 6.77693 13 6.49993 13ZM3.49992 13C3.22292 13 2.99992 12.772 2.99992 12.5V4.50002C2.99992 4.22302 3.22292 4.00002 3.49992 4.00002C3.77692 4.00002 3.99992 4.22302 3.99992 4.50002V12.5C3.99992 12.772 3.77692 13 3.49992 13ZM0.49991 12C0.222909 12 -9.15531e-05 11.772 -9.15531e-05 11.5V7.50003C-9.15531e-05 7.22303 0.222909 7.00003 0.49991 7.00003C0.776911 7.00003 0.999912 7.22303 0.999912 7.50003V11.5C0.999912 11.772 0.776911 12 0.49991 12ZM13 12H20.5C21.879 12 23 10.875 23 9.50004C23 8.12103 21.879 7.00003 20.5 7.00003C19.859 7.00003 19.242 7.24603 18.781 7.69003C18.625 7.84003 18.395 7.87103 18.207 7.77203C18.02 7.68003 17.91 7.47303 17.941 7.26203C17.978 7.01203 18 6.75803 18 6.50002C18 3.63701 15.802 1.272 13 1.019V12ZM20.5 13H12.5C12.223 13 12 12.772 12 12.5V0.500002C12 0.223001 12.223 0 12.5 0C16.027 0.00300001 18.906 2.81501 18.996 6.34002C19.465 6.11302 19.98 5.99602 20.5 6.00002C22.431 6.00002 24 7.56503 24 9.50004C24 11.43 22.431 13 20.5 13Z" fill="#1D1D1B"/>
</g>
</svg>
