<svg width="18" height="22" viewBox="0 0 18 22" fill="none" xmlns="http://www.w3.org/2000/svg">
<path fill-rule="evenodd" clip-rule="evenodd" d="M1.00467 8.07577C0.969087 8.07577 0.933506 8.07882 0.897926 8.08289C0.377433 8.14287 -0.0119201 8.58711 0.000278908 9.10761V12.1574C0.000278908 16.0773 3.91516 19.3192 7.8341 19.3192H5.80093H5.7013C5.14929 19.3589 4.72843 19.8316 4.75689 20.3836C4.78434 20.9397 5.24485 21.3687 5.80093 21.3524H11.9005C12.2705 21.3646 12.6151 21.1694 12.8022 20.8522C12.9892 20.534 12.9892 20.1416 12.8022 19.8235C12.6151 19.5063 12.2705 19.3111 11.9005 19.3192H9.86728C13.7872 19.3192 18 16.119 18 12.199V9.14929C18 8.58915 17.5435 8.1327 16.9793 8.1327C16.4202 8.1327 15.9627 8.58915 15.9627 9.14929V12.199C15.9627 15.0191 12.6873 17.2861 9.86728 17.2861H7.8341C5.0151 17.2861 2.18086 15.3556 2.03345 12.1574V9.10761C2.03752 8.83414 1.92976 8.57186 1.73559 8.37363C1.54143 8.17845 1.27915 8.0717 1.00467 8.07577ZM8.85476 2.03724C10.5504 2.03724 11.9005 3.39134 11.9005 5.09107V10.1699C11.9005 11.8656 10.5504 13.2156 8.85476 13.2156C7.15909 13.2156 5.80093 11.8656 5.80093 10.1699V5.09107C5.80093 3.39134 7.15909 2.03724 8.85476 2.03724ZM8.85476 0C6.05914 0 3.76775 2.29545 3.76775 5.09107V10.1699C3.76775 12.9656 6.05914 15.2488 8.85476 15.2488C11.6504 15.2488 13.9336 12.9656 13.9336 10.1699V5.09107C13.9336 2.29545 11.6504 0 8.85476 0Z" fill="white"/>
</svg>
