<svg width="9" height="15" viewBox="0 0 9 15" fill="none" xmlns="http://www.w3.org/2000/svg">
<path fill-rule="evenodd" clip-rule="evenodd" d="M8.00253 13.4019H3.96187C2.65168 13.3979 1.59 12.3403 1.58192 11.0301V2.9922C1.58192 2.55378 1.77991 2.13962 2.11529 1.8598L2.82947 1.33048C3.09009 1.0547 3.11333 0.632451 2.8921 0.324351C2.66785 0.0172607 2.25671 -0.0857762 1.91426 0.0758502L1.18795 0.620329C0.449523 1.18905 0.0161626 2.06082 0 2.9922V11.0382C0.00404066 13.2242 1.77587 14.996 3.96187 15H8.00253C8.43993 15 8.79147 14.6444 8.79147 14.2111C8.79147 13.7727 8.43993 13.4181 8.00253 13.4181V13.4019Z" fill="#167F71"/>
</svg>
