<svg width="27" height="21" viewBox="0 0 27 21" fill="none" xmlns="http://www.w3.org/2000/svg">
<path fill-rule="evenodd" clip-rule="evenodd" d="M21.7245 21H4.37501C1.95826 21 5.39644e-06 19.0413 5.39644e-06 16.625V4.375C-0.0017446 3.26069 0.422193 2.18925 1.18432 1.37725C1.51594 1.0255 2.06938 1.00844 2.42332 1.33831C2.77551 1.6695 2.79257 2.22337 2.46269 2.57731C2.00463 3.06425 1.75001 3.70694 1.75001 4.375V16.625C1.75001 18.0744 2.92382 19.25 4.37501 19.25H21.7245C23.1753 19.25 24.3495 18.0744 24.3495 16.625V4.375C24.3495 2.926 23.1753 1.75 21.7245 1.75H5.50813C5.02426 1.75 4.63313 1.35844 4.63313 0.875C4.63313 0.391562 5.02426 0 5.50813 0H21.7245C24.1408 0 26.0995 1.95869 26.0995 4.375V16.625C26.0995 19.0413 24.1408 21 21.7245 21Z" fill="white"/>
<path fill-rule="evenodd" clip-rule="evenodd" d="M9.9342 15.6629C9.2097 15.6629 8.6217 15.0749 8.6217 14.3504V6.64953C8.62345 6.1884 8.86627 5.76097 9.26089 5.52515C9.65727 5.28759 10.1495 5.27709 10.5563 5.49453L17.7357 9.34453C18.1614 9.57378 18.3185 10.1053 18.0896 10.531C17.8604 10.9563 17.3288 11.1151 16.9036 10.8845L10.3717 7.38453V13.6189L14.3092 11.5067C14.5861 11.3408 14.9313 11.3391 15.21 11.5049C15.4865 11.6707 15.6493 11.9748 15.6335 12.2981C15.62 12.6192 15.4288 12.908 15.1365 13.0467L10.5563 15.5058C10.3647 15.6082 10.1512 15.6629 9.9342 15.6629Z" fill="white"/>
</svg>
