<svg width="22" height="18" viewBox="0 0 22 18" fill="none" xmlns="http://www.w3.org/2000/svg">
<path fill-rule="evenodd" clip-rule="evenodd" d="M20.7099 7.6379L4.40436 7.6379L9.9429 2.1609C10.4319 1.66207 10.4215 0.864693 9.92742 0.372236C9.42943 -0.116394 8.62309 -0.126603 8.11865 0.356926L0.377856 8.01171C0.135311 8.25029 -0.000153639 8.57434 -0.000153639 8.9086V8.9137C-0.000153639 9.07828 0.0346811 9.24796 0.100478 9.40233C0.166275 9.5567 0.261744 9.69577 0.377856 9.81569L8.11865 17.4705C8.62825 17.954 9.42943 17.9438 9.92742 17.4552C10.4267 16.9627 10.4319 16.1653 9.9429 15.6665L4.40436 10.1895L20.7099 10.1895C21.4207 10.1895 22 9.61667 22 8.9137C22 8.21074 21.4207 7.6379 20.7099 7.6379Z" fill="#9C9C9C"/>
</svg>
