<svg width="20" height="19" viewBox="0 0 20 19" fill="none" xmlns="http://www.w3.org/2000/svg">
<path d="M15.3094 0.792341C14.8465 0.491091 14.227 0.622126 13.9258 1.08502C13.6245 1.54791 13.7556 2.16736 14.2184 2.46861L15.3094 0.792341ZM18.4438 11.628L19.4025 11.9125L19.4025 11.9125L18.4438 11.628ZM1.36876 11.628L0.410072 11.9125L0.410074 11.9125L1.36876 11.628ZM5.59416 2.46861C6.05705 2.16736 6.18808 1.54791 5.88683 1.08502C5.58558 0.622126 4.96613 0.491091 4.50324 0.792341L5.59416 2.46861ZM10.9055 1C10.9055 0.447715 10.4578 0 9.90549 0C9.35321 0 8.90549 0.447715 8.90549 1H10.9055ZM8.90549 8.69121C8.90549 9.24349 9.35321 9.69121 9.90549 9.69121C10.4578 9.69121 10.9055 9.24349 10.9055 8.69121H8.90549ZM14.2184 2.46861C17.1518 4.37762 18.4807 7.98834 17.4852 11.3436L19.4025 11.9125C20.65 7.70849 18.9848 3.18434 15.3094 0.792341L14.2184 2.46861ZM17.4852 11.3436C16.4896 14.6986 13.4061 17 9.9063 17V19C14.2914 19 18.1551 16.1165 19.4025 11.9125L17.4852 11.3436ZM9.9063 17C6.40654 17 3.32299 14.6986 2.32744 11.3436L0.410074 11.9125C1.65752 16.1165 5.52116 19 9.9063 19V17ZM2.32745 11.3436C1.33187 7.98834 2.66085 4.37762 5.59416 2.46861L4.50324 0.792341C0.827779 3.18434 -0.837353 7.70849 0.410072 11.9125L2.32745 11.3436ZM8.90549 1V8.69121H10.9055V1H8.90549Z" fill="#202244"/>
</svg>
