<svg width="16" height="20" viewBox="0 0 16 20" fill="none" xmlns="http://www.w3.org/2000/svg">
<path fill-rule="evenodd" clip-rule="evenodd" d="M14.8677 18.4615C14.8677 18.7469 14.6362 18.9785 14.3508 18.9785H5.12V4.09846H14.8677V18.4615ZM1.02154 17.9446V3.84615L1.22923 3.95462L1.43615 4.02308H1.50538L1.68231 4.06231H4.09846V18.9785H2.04308C1.47846 18.9723 1.02154 18.5123 1.02154 17.9446ZM2.04308 1.02154H13.5815C13.41 1.33692 13.32 1.69462 13.3292 2.05538C13.3292 2.41308 13.4254 2.76769 13.6054 3.07692H2.06692C1.53538 3.03154 1.12692 2.58385 1.12692 2.04923C1.12692 1.51462 1.53538 1.07 2.06692 1.02154H2.04308ZM15.3846 3.07692C14.9938 3.11 14.6215 2.92385 14.4169 2.59C14.2123 2.26 14.2123 1.84231 14.4169 1.50846C14.6215 1.17769 14.9938 0.988462 15.3846 1.02154C15.6431 0.991539 15.8354 0.772308 15.8354 0.510769C15.8354 0.252308 15.6431 0.0330769 15.3846 0H2.04308C0.913077 0.00307692 0 0.922308 0 2.05538V17.9446C0 19.0777 0.913077 19.9969 2.04308 20H14.3508C15.2015 20 15.8892 19.3115 15.8892 18.4615V3.59385C15.8892 3.31154 15.6638 3.08 15.3846 3.07692Z" fill="black"/>
<path fill-rule="evenodd" clip-rule="evenodd" d="M6.65853 17.9447H9.23084C9.4893 17.9147 9.68161 17.6955 9.68161 17.4339C9.68161 17.1755 9.4893 16.9562 9.23084 16.9232H6.65853C6.40007 16.9562 6.20776 17.1755 6.20776 17.4339C6.20776 17.6955 6.40007 17.9147 6.65853 17.9447ZM6.65853 15.9016H10.2524C10.5378 15.9016 10.7693 15.6701 10.7693 15.3847C10.7693 15.0993 10.5378 14.8678 10.2524 14.8678H6.65853C6.37622 14.8678 6.14468 15.0993 6.14468 15.3847C6.14468 15.6701 6.37622 15.9016 6.65853 15.9016ZM6.65853 13.8462H9.23084C9.4893 13.8132 9.68161 13.5939 9.68161 13.3355C9.68161 13.0739 9.4893 12.8547 9.23084 12.8247H6.65853C6.40007 12.8547 6.20776 13.0739 6.20776 13.3355C6.20776 13.5939 6.40007 13.8132 6.65853 13.8462ZM7.17545 7.9447H12.8124V6.40624H7.17545V7.9447ZM6.65853 8.97855H13.3293C13.6147 8.97855 13.8462 8.74701 13.8462 8.46163V5.90163C13.8462 5.61624 13.6147 5.3847 13.3293 5.3847H6.65853C6.3793 5.38778 6.15391 5.61932 6.15391 5.90163V8.46163C6.15391 8.74394 6.3793 8.9724 6.65853 8.97855Z" fill="black"/>
</svg>
