<svg width="15" height="19" viewBox="0 0 15 19" fill="none" xmlns="http://www.w3.org/2000/svg">
<path fill-rule="evenodd" clip-rule="evenodd" d="M10.6743 0.299988H4.46615C1.90655 0.299988 0.300049 2.08559 0.300049 4.95479V16.7916C0.300049 17.625 0.960649 18.3 1.77335 18.3C2.01905 18.3 2.26205 18.237 2.47985 18.1173L7.53155 15.312L13.413 18.1344C13.5714 18.2019 13.7505 18.2019 13.9125 18.1344C14.07 18.0678 14.1969 17.9382 14.2635 17.7762C14.3625 17.4738 14.2428 17.1435 13.9791 16.9815L8.13635 14.187C7.75205 13.9692 7.29305 13.9692 6.90965 14.187L1.85075 16.9815C1.79405 17.013 1.72385 17.013 1.66445 16.9815C1.61135 16.9464 1.57985 16.8834 1.57985 16.8132V4.95479C1.58705 2.83439 2.62745 1.62569 4.48955 1.62569H10.695C13.0863 1.62569 13.4337 3.61199 13.4337 4.80359V5.34449H6.71615C6.54695 5.35169 6.38585 5.42549 6.26615 5.55239C6.15005 5.68199 6.09065 5.85119 6.09695 6.02669C6.10325 6.37499 6.37865 6.65309 6.71615 6.66299H13.413V13.6137C13.413 13.9755 13.701 14.2707 14.0565 14.2707C14.4075 14.2707 14.6964 13.9827 14.7 13.6209V4.80359C14.7 2.02259 13.1637 0.299988 10.6743 0.299988Z" fill="#167F71"/>
<path d="M10.6743 0.299988H4.46615C1.90655 0.299988 0.300049 2.08559 0.300049 4.95479V16.7916C0.300049 17.625 0.960649 18.3 1.77335 18.3C2.01905 18.3 2.26205 18.237 2.47985 18.1173L7.53155 15.312L13.413 18.1344C13.5714 18.2019 13.7505 18.2019 13.9125 18.1344C14.07 18.0678 14.1969 17.9382 14.2635 17.7762C14.3625 17.4738 14.2428 17.1435 13.9791 16.9815L8.13635 14.187C7.75205 13.9692 7.29305 13.9692 6.90965 14.187L1.85075 16.9815C1.79405 17.013 1.72385 17.013 1.66445 16.9815C1.61135 16.9464 1.57985 16.8834 1.57985 16.8132V4.95479C1.58705 2.83439 2.62745 1.62569 4.48955 1.62569H10.695C13.0863 1.62569 13.4337 3.61199 13.4337 4.80359V5.34449H6.71615C6.54695 5.35169 6.38585 5.42549 6.26615 5.55239C6.15005 5.68199 6.09065 5.85119 6.09695 6.02669C6.10325 6.37499 6.37865 6.65309 6.71615 6.66299H13.413V13.6137C13.413 13.9755 13.701 14.2707 14.0565 14.2707C14.4075 14.2707 14.6964 13.9827 14.7 13.6209V4.80359C14.7 2.02259 13.1637 0.299988 10.6743 0.299988" stroke="#167F71" stroke-width="0.6" stroke-linecap="round" stroke-linejoin="round"/>
</svg>
