<svg width="20" height="24" viewBox="0 0 20 24" fill="none" xmlns="http://www.w3.org/2000/svg">
<mask id="mask0_7_8899" style="mask-type:luminance" maskUnits="userSpaceOnUse" x="0" y="1" width="20" height="23">
<path fill-rule="evenodd" clip-rule="evenodd" d="M0 1.04362H19.0638V24H0V1.04362Z" fill="white"/>
</mask>
<g mask="url(#mask0_7_8899)">
<path fill-rule="evenodd" clip-rule="evenodd" d="M14.5745 13.873C14.7862 14.4338 14.9276 15.0177 14.9979 15.6127L15.1423 13.8379L14.5745 13.873ZM11.5416 19.4963L12.6111 20.5628C13.5401 19.414 14.0458 17.9764 14.0458 16.4995C14.0458 15.4963 13.822 14.5321 13.3836 13.6302C13.3043 13.4807 13.3124 13.3011 13.3986 13.1567C13.4809 13.0112 13.6344 12.9169 13.802 12.9098L15.66 12.8075C15.8055 12.7995 15.9419 12.8537 16.0483 12.956C16.1496 13.0613 16.2008 13.2028 16.1887 13.3483L15.7383 18.8693C15.7032 19.2936 15.8948 19.5204 16.0633 19.6388C16.3382 19.8264 16.7335 19.8615 17.0275 19.721C17.2903 19.5956 17.4468 19.3478 17.4709 19.0117L18.0548 11.9216C18.0739 11.6708 17.9876 11.427 17.812 11.2514C17.6355 11.0709 17.3886 10.9776 17.1378 10.9886L12.3442 11.2555C12.1406 11.2715 11.9529 11.1612 11.8626 10.9776C11.7724 10.797 11.8035 10.5772 11.9409 10.4248L14.5745 7.431C14.7902 7.18319 14.8875 6.85011 14.8373 6.51702C14.7942 6.21604 14.6337 5.95318 14.4099 5.81574V5.81172C12.3171 4.59677 10.2243 3.38181 8.12848 2.16685C7.80242 1.97522 7.39108 2.01435 7.11317 2.26517L4.04016 5.0051C3.56662 5.42747 3.70607 5.9261 3.97696 6.22306C4.24383 6.52505 4.7264 6.7247 5.20094 6.30232L7.53154 4.22857C7.69306 4.08409 7.92783 4.06002 8.11644 4.17038L10.0397 5.28701C10.1691 5.36126 10.2594 5.49068 10.2835 5.63916C10.3066 5.78865 10.2634 5.93713 10.1651 6.0515L6.76404 9.91509C6.68979 10.0014 6.58345 10.0606 6.46907 10.0756C5.36147 10.2562 4.32308 10.7187 3.44924 11.42L4.51872 12.4905C5.38454 11.8394 6.43898 11.4902 7.5205 11.4902C9.50797 11.4742 11.3139 12.651 12.1014 14.4729C12.8499 16.1665 12.6311 18.0506 11.5416 19.4963ZM12.6342 21.8018C12.5017 21.7968 12.3763 21.7466 12.282 21.6523L10.5062 19.8816C10.3186 19.6929 10.3106 19.388 10.4912 19.1913C11.5687 18.0235 11.8386 16.322 11.1844 14.8763C10.5534 13.4185 9.10767 12.4825 7.5205 12.4935C6.52125 12.4935 5.56513 12.8667 4.82472 13.5359C4.62406 13.7165 4.32308 13.7084 4.13046 13.5198L2.35969 11.7491C2.26137 11.6517 2.2102 11.5223 2.2102 11.3849C2.21421 11.2514 2.26939 11.122 2.36972 11.0277C3.41312 10.0445 4.71837 9.38235 6.12897 9.11549L9.00935 5.84684L7.92783 5.21678L5.87113 7.05076C4.95414 7.86541 3.84854 7.58751 3.22952 6.89024C2.6105 6.19597 2.46102 5.0673 3.37299 4.25565L6.44299 1.52074C7.04997 0.979982 7.93084 0.889688 8.63312 1.29702C13.4769 4.10316 14.6337 4.77735 14.9387 4.96898L14.9427 4.96195C15.4172 5.25591 15.7423 5.76858 15.8326 6.36854C15.9229 6.99558 15.7423 7.62262 15.3309 8.08914L13.4849 10.186L17.0786 9.98532C17.6194 9.95021 18.1521 10.1539 18.5284 10.5461C18.9086 10.9344 19.1012 11.4631 19.0581 11.9999L18.4742 19.09C18.415 19.7873 18.0468 20.3481 17.4589 20.625C16.8198 20.9189 16.0754 20.8567 15.4955 20.4655C14.9547 20.0892 14.6798 19.4813 14.735 18.787L14.7551 18.5793C14.422 19.7281 13.822 20.7745 12.9993 21.6413C12.9091 21.7426 12.7796 21.7968 12.6422 21.8018H12.6342ZM1.80689 13.3794C1.27716 14.3245 1.00327 15.3859 1.00327 16.4955C1.00327 18.9365 2.28745 21.0805 4.44849 22.2212C6.41891 23.2676 8.73947 23.2475 10.6397 22.2091L9.51801 21.0925C8.89097 21.3664 8.21075 21.5069 7.52451 21.5119C5.76478 21.5199 4.13046 20.5949 3.23353 19.081C2.38276 17.6583 2.27341 15.9738 2.92352 14.5L1.80689 13.3794ZM7.54759 24C6.30053 24 5.07553 23.695 3.97696 23.1101C1.48484 21.7898 0 19.3167 0 16.4955C0 14.9746 0.449464 13.5249 1.30525 12.2938C1.38652 12.1724 1.52095 12.0942 1.66944 12.0781C1.81792 12.0671 1.9634 12.1213 2.06874 12.2266L3.88365 14.0415C4.04016 14.199 4.07528 14.4368 3.97395 14.6335C3.31179 15.8685 3.35894 17.3383 4.09534 18.5643C4.81268 19.7752 6.11793 20.5126 7.52451 20.5086C8.18165 20.5086 8.8087 20.3511 9.38558 20.0461C9.5782 19.9397 9.82099 19.9749 9.97349 20.1324L11.7994 21.9463C11.9058 22.0526 11.961 22.2011 11.9449 22.3506C11.9329 22.4991 11.8506 22.6315 11.7292 22.7178C10.4952 23.5575 9.03644 24.004 7.54759 24Z" fill="#1D1D1B"/>
</g>
<mask id="mask1_7_8899" style="mask-type:luminance" maskUnits="userSpaceOnUse" x="12" y="0" width="7" height="6">
<path fill-rule="evenodd" clip-rule="evenodd" d="M12.8267 0H18.4269V5.52189H12.8267V0Z" fill="white"/>
</mask>
<g mask="url(#mask1_7_8899)">
<path fill-rule="evenodd" clip-rule="evenodd" d="M15.6248 0.932948C14.6376 0.932948 13.83 1.73657 13.83 2.72378C13.83 3.71902 14.6336 4.52264 15.6248 4.52264C16.616 4.52264 17.4237 3.71902 17.4237 2.72378C17.4237 1.73657 16.616 0.932948 15.6248 0.932948ZM15.6248 5.5219C14.0808 5.5219 12.8267 4.26781 12.8267 2.72378C12.8658 1.20684 14.1079 -9.1852e-05 15.6248 -9.1852e-05C17.1458 -9.1852e-05 18.3838 1.20684 18.4269 2.72378C18.4229 4.27182 17.1688 5.5219 15.6248 5.5219Z" fill="#1D1D1B"/>
</g>
</svg>
