<svg width="64" height="58" viewBox="0 0 64 58" fill="none" xmlns="http://www.w3.org/2000/svg">
<path fill-rule="evenodd" clip-rule="evenodd" d="M42.3283 37.671C36.6413 43.359 27.3713 43.359 21.6723 37.671C15.9802 31.9679 15.9802 22.6989 21.6723 17.0109C24.5123 14.1599 28.2503 12.7299 32.0003 12.7299C35.8753 12.7259 39.5903 14.2609 42.3283 16.9999C48.0314 22.6989 48.0314 31.9679 42.3283 37.671ZM46.4884 38.27C49.1134 34.8039 50.4024 30.5069 50.1214 26.1709C50.0784 25.5389 50.0124 24.9209 49.8984 24.2999C49.3014 20.6989 47.6214 17.2609 44.8404 14.4919C44.6094 14.2609 44.3714 14.0309 44.1294 13.8199C43.6214 13.3709 43.1094 12.9609 42.5783 12.5699C36.2813 8.04984 27.7113 8.04984 21.4103 12.5699C20.8793 12.9489 20.3593 13.3779 19.8593 13.8199C19.6293 14.0389 19.3913 14.2499 19.1603 14.4799C16.4882 17.1399 14.7152 20.5699 14.0902 24.2889C13.9882 24.9099 13.9102 25.5389 13.8712 26.1599C13.5512 31.1989 15.3092 36.3389 19.1483 40.171C22.6913 43.731 27.3523 45.5 32.0003 45.5C35.8593 45.5 39.7113 44.27 42.9413 41.832L55.0584 56.059C55.7894 56.914 56.8404 57.421 57.9614 57.464C59.0784 57.507 60.1684 57.082 60.9614 56.289C62.6094 54.641 62.5004 51.921 60.7194 50.402L46.4884 38.27Z" fill="#292F64"/>
<mask id="mask0_7_8156" style="mask-type:luminance" maskUnits="userSpaceOnUse" x="0" y="0" width="64" height="37">
<path fill-rule="evenodd" clip-rule="evenodd" d="M0 0H64V36.4919H0V0Z" fill="white"/>
</mask>
<g mask="url(#mask0_7_8156)">
<path fill-rule="evenodd" clip-rule="evenodd" d="M52.219 10.4408C55.102 10.4408 57.442 8.10081 57.442 5.2178C57.442 2.33879 55.102 -0.00022375 52.219 -0.00022375C49.3399 -0.00822378 46.9999 2.33879 46.9999 5.2178C46.9999 8.10081 49.3399 10.4408 52.219 10.4408ZM55.891 11.1788L55.711 11.1598L52.809 15.3198C52.68 15.5108 52.461 15.6248 52.231 15.6208C52 15.6208 51.782 15.4998 51.641 15.3078L48.7309 11.1518L48.5509 11.1708C47.3399 11.3078 46.1799 11.6788 45.1019 12.2888L44.7309 12.4998L45.0509 12.7888C45.3089 13.0188 45.5589 13.2608 45.8089 13.5108C48.6989 16.4018 50.5779 20.0389 51.2389 24.0579L51.2819 24.3199H59.571L59.809 20.0889C59.836 19.7029 60.164 19.4099 60.551 19.4209H60.559C60.949 19.4409 61.25 19.7809 61.231 20.1709L61.012 24.3199H64V20.2609C64 15.6088 60.512 11.6988 55.891 11.1788ZM11.7698 10.4408C14.6478 10.4408 16.9878 8.10081 16.9878 5.2178C16.9878 2.33879 14.6478 -0.00022375 11.7698 -0.00022375C8.89079 -0.00022375 6.55178 2.33879 6.55178 5.2178C6.53878 8.10081 8.89079 10.4408 11.7698 10.4408ZM18.9488 12.7998L19.2618 12.5188L18.8978 12.3078C17.8398 11.7028 16.6638 11.3198 15.4488 11.1788L15.2698 11.1598L12.3788 15.3078C12.2498 15.4798 12.0308 15.5888 11.7888 15.5888C11.5388 15.5888 11.3278 15.4918 11.2108 15.3078L8.30179 11.1518L8.10179 11.1788C3.47977 11.6788 -0.000244142 15.5888 -0.000244142 20.2689V24.3319H2.96877L2.74977 20.1789C2.72977 19.7889 3.03077 19.4489 3.49977 19.4289C3.85177 19.4289 4.15977 19.7419 4.17977 20.1089L4.40977 24.3389H12.6988L12.7378 24.0819C13.4098 20.0699 15.2888 16.4288 18.1908 13.5308C18.4408 13.2688 18.6908 13.0388 18.9488 12.7998ZM31.9999 24.9919C34.4889 24.9919 36.5119 22.9609 36.5119 20.4799C36.5119 17.9998 34.4889 15.9678 31.9999 15.9678C29.5119 15.9678 27.4879 17.9998 27.4879 20.4799C27.4879 22.9609 29.5119 24.9919 31.9999 24.9919ZM35.1599 25.7419L34.9809 25.7179L32.5899 29.1279C32.4689 29.3089 32.2389 29.4099 31.9999 29.4099C31.7619 29.4099 31.5389 29.2999 31.4219 29.1279L29.0309 25.7179L28.8519 25.7419C25.1019 26.1909 22.2698 29.4099 22.2698 33.2099V36.4919H24.5198L24.3398 33.1409C24.3198 32.7499 24.6288 32.4019 25.1019 32.3709C25.4409 32.3709 25.7499 32.6789 25.7699 33.0589L25.9609 36.4919H38.0389L38.2309 33.0589C38.2579 32.6679 38.5899 32.3669 38.9809 32.3779H38.9889C39.3789 32.4019 39.6799 32.7419 39.6599 33.1409L39.4809 36.4919H41.7309V33.2099C41.7189 29.4209 38.8989 26.2109 35.1599 25.7419Z" fill="#292F64"/>
</g>
</svg>
