<svg width="28" height="28" viewBox="0 0 28 28" fill="none" xmlns="http://www.w3.org/2000/svg">
<path d="M7.24747 16.6717L6.91332 17.0217V8.16665C6.91332 7.85723 6.79192 7.56049 6.57584 7.34169C6.35975 7.1229 6.06667 6.99998 5.76108 6.99998C5.45549 6.99998 5.16242 7.1229 4.94633 7.34169C4.73025 7.56049 4.60885 7.85723 4.60885 8.16665V17.0217L4.2747 16.6717C4.05773 16.452 3.76346 16.3286 3.45661 16.3286C3.14977 16.3286 2.8555 16.452 2.63853 16.6717C2.42156 16.8913 2.29967 17.1893 2.29967 17.5C2.29967 17.8107 2.42156 18.1086 2.63853 18.3283L4.943 20.6617C5.05258 20.7679 5.1818 20.8511 5.32323 20.9067C5.46116 20.9684 5.61029 21.0003 5.76108 21.0003C5.91188 21.0003 6.06101 20.9684 6.19893 20.9067C6.34037 20.8511 6.46959 20.7679 6.57917 20.6617L8.88364 18.3283C8.99107 18.2195 9.07629 18.0904 9.13443 17.9483C9.19257 17.8062 9.2225 17.6538 9.2225 17.5C9.2225 17.3462 9.19257 17.1938 9.13443 17.0517C9.07629 16.9096 8.99107 16.7804 8.88364 16.6717C8.77621 16.5629 8.64866 16.4766 8.5083 16.4177C8.36793 16.3589 8.21748 16.3286 8.06555 16.3286C7.91362 16.3286 7.76317 16.3589 7.62281 16.4177C7.48244 16.4766 7.3549 16.5629 7.24747 16.6717ZM12.6745 9.33332H24.1968C24.5024 9.33332 24.7955 9.2104 25.0116 8.99161C25.2277 8.77282 25.3491 8.47607 25.3491 8.16665C25.3491 7.85723 25.2277 7.56049 25.0116 7.34169C24.7955 7.1229 24.5024 6.99998 24.1968 6.99998H12.6745C12.3689 6.99998 12.0758 7.1229 11.8597 7.34169C11.6436 7.56049 11.5223 7.85723 11.5223 8.16665C11.5223 8.47607 11.6436 8.77282 11.8597 8.99161C12.0758 9.2104 12.3689 9.33332 12.6745 9.33332ZM24.1968 12.8333H12.6745C12.3689 12.8333 12.0758 12.9562 11.8597 13.175C11.6436 13.3938 11.5223 13.6906 11.5223 14C11.5223 14.3094 11.6436 14.6062 11.8597 14.8249C12.0758 15.0437 12.3689 15.1667 12.6745 15.1667H24.1968C24.5024 15.1667 24.7955 15.0437 25.0116 14.8249C25.2277 14.6062 25.3491 14.3094 25.3491 14C25.3491 13.6906 25.2277 13.3938 25.0116 13.175C24.7955 12.9562 24.5024 12.8333 24.1968 12.8333ZM24.1968 18.6667H12.6745C12.3689 18.6667 12.0758 18.7896 11.8597 19.0084C11.6436 19.2272 11.5223 19.5239 11.5223 19.8333C11.5223 20.1427 11.6436 20.4395 11.8597 20.6583C12.0758 20.8771 12.3689 21 12.6745 21H24.1968C24.5024 21 24.7955 20.8771 25.0116 20.6583C25.2277 20.4395 25.3491 20.1427 25.3491 19.8333C25.3491 19.5239 25.2277 19.2272 25.0116 19.0084C24.7955 18.7896 24.5024 18.6667 24.1968 18.6667Z" fill="#BCC1CD"/>
</svg>
