<svg width="54" height="54" viewBox="0 0 54 54" fill="none" xmlns="http://www.w3.org/2000/svg">
<path fill-rule="evenodd" clip-rule="evenodd" d="M13.9563 28.7112V41.1417C15.0682 41.5344 15.8135 42.5839 15.8172 43.7655V45.6264C15.8172 46.1391 15.3994 46.5568 14.8868 46.5568H5.58248C5.06982 46.5568 4.65205 46.1391 4.65205 45.6264V43.7655C4.65578 42.5839 5.40105 41.5344 6.51291 41.1417V28.7112C5.40105 28.3186 4.65578 27.2691 4.65205 26.0874V24.2266C4.65205 23.7139 5.06982 23.2961 5.58248 23.2961H14.8868C15.3994 23.2961 15.8172 23.7139 15.8172 24.2266V26.0874C15.8135 27.2691 15.0682 28.3186 13.9563 28.7112Z" fill="#96A1C3"/>
<path fill-rule="evenodd" clip-rule="evenodd" d="M13.9565 28.7112V41.1417C15.0683 41.5344 15.8136 42.5839 15.8173 43.7655V45.6264C15.8173 46.1391 15.3996 46.5568 14.8869 46.5568H8.37391C8.37019 46.5317 8.37019 46.5057 8.37391 46.4843V44.4745C8.37763 43.2529 9.10802 42.1522 10.2348 41.6833V28.2172C9.09313 27.7408 8.3553 26.6178 8.37391 25.3784V23.3687C8.37019 23.3473 8.37019 23.3213 8.37391 23.2961H14.8869C15.3996 23.2961 15.8173 23.7139 15.8173 24.2266V26.0874C15.8136 27.2691 15.0683 28.3186 13.9565 28.7112Z" fill="#CCD3EB"/>
<path fill-rule="evenodd" clip-rule="evenodd" d="M30.704 28.7112V41.1417C31.8159 41.5344 32.5612 42.5839 32.5649 43.7655V45.6264C32.5649 46.1391 32.1471 46.5568 31.6344 46.5568H22.3302C21.8175 46.5568 21.3997 46.1391 21.3997 45.6264V43.7655C21.4035 42.5839 22.1487 41.5344 23.2606 41.1417V28.7112C22.1487 28.3186 21.4035 27.2691 21.3997 26.0874V24.2266C21.3997 23.7139 21.8175 23.2961 22.3302 23.2961H31.6344C32.1471 23.2961 32.5649 23.7139 32.5649 24.2266V26.0874C32.5612 27.2691 31.8159 28.3186 30.704 28.7112Z" fill="#96A1C3"/>
<path fill-rule="evenodd" clip-rule="evenodd" d="M30.7042 28.7112V41.1417C31.816 41.5344 32.5613 42.5839 32.565 43.7655V45.6264C32.565 46.1391 32.1473 46.5568 31.6346 46.5568H25.1216C25.1179 46.5317 25.1179 46.5057 25.1216 46.4843V44.4745C25.1253 43.2529 25.8557 42.1522 26.9825 41.6833V28.2172C25.8408 27.7408 25.103 26.6178 25.1216 25.3784V23.3687C25.1179 23.3473 25.1179 23.3213 25.1216 23.2961H31.6346C32.1473 23.2961 32.565 23.7139 32.565 24.2266V26.0874C32.5613 27.2691 31.816 28.3186 30.7042 28.7112Z" fill="#CCD3EB"/>
<path fill-rule="evenodd" clip-rule="evenodd" d="M47.4517 28.7112V41.1417C48.5636 41.5344 49.3088 42.5839 49.3126 43.7655V45.6264C49.3126 46.1391 48.8948 46.5568 48.3821 46.5568H39.0779C38.5652 46.5568 38.1474 46.1391 38.1474 45.6264V43.7655C38.1512 42.5839 38.8964 41.5344 40.0083 41.1417V28.7112C38.8964 28.3186 38.1512 27.2691 38.1474 26.0874V24.2266C38.1474 23.7139 38.5652 23.2961 39.0779 23.2961H48.3821C48.8948 23.2961 49.3126 23.7139 49.3126 24.2266V26.0874C49.3088 27.2691 48.5636 28.3186 47.4517 28.7112Z" fill="#96A1C3"/>
<path fill-rule="evenodd" clip-rule="evenodd" d="M50.2431 17.7132C50.2431 18.2259 49.8253 18.6436 49.3126 18.6436H4.65211C4.25947 18.6436 3.91056 18.3961 3.77658 18.0295C3.64539 17.6583 3.76169 17.2443 4.06687 16.9968L4.31809 16.7828L13.2037 9.51707L23.0932 1.41956C23.5007 1.08553 23.951 0.809196 24.4349 0.595198C24.7475 0.442608 25.0778 0.322583 25.4193 0.238844C26.4446 -0.0337708 27.5202 -0.0337708 28.5455 0.238844C28.7781 0.292809 29.007 0.369104 29.2247 0.464008L29.5299 0.595198C29.9048 0.761745 30.2603 0.96923 30.5915 1.20928L30.8716 1.41956L39.2454 8.27774L42.113 10.6224L42.7996 11.2002L45.6747 13.5551L48.4659 15.8337L49.6104 16.7642L49.8616 16.9791C50.0979 17.1503 50.2393 17.4229 50.2431 17.7132ZM47.4518 28.7109V41.1423C48.5636 41.5349 49.3089 42.5835 49.3126 43.7652V45.626C49.3126 46.1396 48.8949 46.5565 48.3822 46.5565H41.8692C41.8655 46.5323 41.8655 46.5053 41.8692 46.4839V44.4751C41.8729 43.2525 42.6033 42.1527 43.7301 41.6838V28.2168C42.5884 27.7404 41.8506 26.6174 41.8692 25.3781V23.3683C41.8655 23.3469 41.8655 23.3209 41.8692 23.2958H48.3822C48.8949 23.2958 49.3126 23.7135 49.3126 24.2262V26.087C49.3089 27.2696 48.5636 28.3182 47.4518 28.7109Z" fill="#CCD3EB"/>
<path fill-rule="evenodd" clip-rule="evenodd" d="M48.5022 15.8524H13.026C12.6333 15.8524 12.2844 15.6049 12.1504 15.2383C12.0192 14.867 12.1355 14.453 12.4407 14.2055L12.6919 13.9915L21.5775 6.72579L29.2247 0.464016L29.5299 0.595206C29.9048 0.761753 30.2612 0.969238 30.5915 1.20929L30.8716 1.41956L39.2454 8.27775L42.113 10.6224L42.7996 11.2002L45.6747 13.5551L48.5022 15.8524Z" fill="#F5F7FF"/>
<path fill-rule="evenodd" clip-rule="evenodd" d="M3.72179 16.7833H50.2432C51.784 16.7833 53.0344 18.0337 53.0344 19.5745V22.3658C53.0344 23.9066 51.784 25.1571 50.2432 25.1571H3.72179C2.181 25.1571 0.93051 23.9066 0.93051 22.3658V19.5745C0.93051 18.0337 2.181 16.7833 3.72179 16.7833Z" fill="#CCD3EB"/>
<path fill-rule="evenodd" clip-rule="evenodd" d="M27.3349 8.40937H26.4044C26.1495 8.40937 25.9392 8.20188 25.9392 7.94415C25.9392 7.68642 26.1495 7.47894 26.4044 7.47894H28.8431C29.3558 7.47894 29.7735 7.06118 29.7735 6.54851C29.7735 6.03585 29.3558 5.61808 28.8431 5.61808H27.9127V4.68766C27.9127 4.17499 27.4949 3.75723 26.9822 3.75723C26.4696 3.75723 26.0518 4.17499 26.0518 4.68766V5.61808C24.7688 5.71578 23.8058 6.83601 23.9035 8.12186C24.0021 9.40492 25.1214 10.3679 26.4044 10.2702H27.3349C27.5926 10.2702 27.8001 10.4777 27.8001 10.7354C27.8001 10.9932 27.5926 11.2006 27.3349 11.2006H25.1214C24.6087 11.2006 24.191 11.6184 24.191 12.1311C24.191 12.6437 24.6087 13.0615 25.1214 13.0615H26.0518V13.9919C26.0518 14.5046 26.4696 14.9224 26.9822 14.9224C27.4949 14.9224 27.9127 14.5046 27.9127 13.9919V12.9778C29.058 12.7014 29.8135 11.6082 29.6684 10.4377C29.5195 9.26722 28.5165 8.39076 27.3349 8.40937Z" fill="#F5F7FF"/>
<path fill-rule="evenodd" clip-rule="evenodd" d="M49.3127 44.6957H4.65214C2.0823 44.6957 0 46.778 0 49.3478V53.0696C0 53.5831 0.417762 54 0.930427 54H53.0344C53.547 54 53.9648 53.5831 53.9648 53.0696V49.3478C53.9648 46.778 51.8825 44.6957 49.3127 44.6957Z" fill="#96A1C3"/>
<path fill-rule="evenodd" clip-rule="evenodd" d="M42.967 12.5237C42.793 12.7377 42.5306 12.8651 42.2505 12.8651C42.0365 12.8689 41.8253 12.7926 41.6662 12.6511L40.9386 12.0585C40.6009 11.717 40.5758 11.1792 40.8772 10.8117C41.1787 10.4414 41.7127 10.3614 42.1128 10.6228L42.7995 11.2006C42.9995 11.3532 43.1307 11.5784 43.1633 11.8258C43.1921 12.0733 43.1233 12.3273 42.967 12.5237Z" fill="#033C59"/>
<path fill-rule="evenodd" clip-rule="evenodd" d="M26.4044 7.4785H28.8431C29.3558 7.4785 29.7735 7.06074 29.7735 6.54808C29.7735 6.03541 29.3558 5.61765 28.8431 5.61765H27.9127V4.68722C27.9127 4.17456 27.4949 3.75679 26.9822 3.75679C26.4696 3.75679 26.0518 4.17456 26.0518 4.68722V5.61765C24.7688 5.71534 23.8058 6.83558 23.9035 8.12143C24.0021 9.40449 25.1214 10.3675 26.4044 10.2698H27.3349C27.5926 10.2698 27.8001 10.4773 27.8001 10.735C27.8001 10.9927 27.5926 11.2002 27.3349 11.2002H25.1214C24.6087 11.2002 24.191 11.618 24.191 12.1306C24.191 12.6433 24.6087 13.0611 25.1214 13.0611H26.0518V13.9915C26.0518 14.5042 26.4696 14.9219 26.9822 14.9219C27.4949 14.9219 27.9127 14.5042 27.9127 13.9915V12.9783C29.058 12.701 29.8135 11.6077 29.6684 10.4373C29.5195 9.26679 28.5165 8.39032 27.3349 8.40893H26.4044C26.1495 8.40893 25.9392 8.20145 25.9392 7.94372C25.9392 7.68599 26.1495 7.4785 26.4044 7.4785Z" fill="#0074FF"/>
<mask id="mask0_7_8088" style="mask-type:luminance" maskUnits="userSpaceOnUse" x="0" y="0" width="54" height="54">
<path fill-rule="evenodd" clip-rule="evenodd" d="M0 0H53.9648V54H0V0Z" fill="white"/>
</mask>
<g mask="url(#mask0_7_8088)">
<path fill-rule="evenodd" clip-rule="evenodd" d="M52.1039 52.1391H1.86085V49.3478C1.86085 47.808 3.11135 46.5566 4.65214 46.5566H49.3127C50.8534 46.5566 52.1039 47.808 52.1039 49.3478V52.1391ZM6.51299 43.7653C6.51299 43.2526 6.93075 42.8349 7.44342 42.8349H13.026C13.5386 42.8349 13.9564 43.2526 13.9564 43.7653V44.6957H6.51299V43.7653ZM3.72171 23.2959C3.20904 23.2959 2.79128 22.8781 2.79128 22.3655V19.5742C2.79128 19.0615 3.20904 18.6437 3.72171 18.6437H50.2431C50.7557 18.6437 51.1735 19.0615 51.1735 19.5742V22.3655C51.1735 22.8781 50.7557 23.2959 50.2431 23.2959H3.72171ZM41.8692 40.974H45.5909V28.8784H41.8692V40.974ZM40.0084 43.7653C40.0084 43.2526 40.4261 42.8349 40.9388 42.8349H46.5214C47.034 42.8349 47.4518 43.2526 47.4518 43.7653V44.6957H40.0084V43.7653ZM29.7737 27.0176H24.1911C23.6784 27.0176 23.2607 26.6008 23.2607 26.0872V25.1567H30.7041V26.0872C30.7041 26.6008 30.2863 27.0176 29.7737 27.0176ZM25.1215 40.974H28.8432V28.8784H25.1215V40.974ZM23.2607 43.7653C23.2607 43.2526 23.6784 42.8349 24.1911 42.8349H29.7737C30.2863 42.8349 30.7041 43.2526 30.7041 43.7653V44.6957H23.2607V43.7653ZM8.37385 40.974H12.0956V28.8784H8.37385V40.974ZM7.44342 27.0176C6.93075 27.0176 6.51299 26.6008 6.51299 26.0872V25.1567H13.9564V26.0872C13.9564 26.6008 13.5386 27.0176 13.026 27.0176H7.44342ZM13.9564 41.1424V28.711C15.0683 28.3183 15.8135 27.2688 15.8173 26.0872V25.1567H21.3998V26.0872C21.4036 27.2688 22.1488 28.3183 23.2607 28.711V41.1424C22.1488 41.535 21.4036 42.5836 21.3998 43.7653V44.6957H15.8173V43.7653C15.8135 42.5836 15.0683 41.535 13.9564 41.1424ZM30.7041 41.1424V28.711C31.816 28.3183 32.5612 27.2688 32.565 26.0872V25.1567H38.1475V26.0872C38.1512 27.2688 38.8965 28.3183 40.0084 28.711V41.1424C38.8965 41.535 38.1512 42.5836 38.1475 43.7653V44.6957H32.565V43.7653C32.5612 42.5836 31.816 41.535 30.7041 41.1424ZM47.4518 26.0872C47.4518 26.6008 47.034 27.0176 46.5214 27.0176H40.9388C40.4261 27.0176 40.0084 26.6008 40.0084 26.0872V25.1567H47.4518V26.0872ZM49.3127 44.6957V43.7653C49.3089 42.5836 48.5637 41.535 47.4518 41.1424V28.711C48.5637 28.3183 49.3089 27.2688 49.3127 26.0872V25.1567H50.2431C51.7839 25.1567 53.0344 23.9062 53.0344 22.3655V19.5742C53.0344 18.0334 51.7839 16.7829 50.2431 16.7829H49.6467L45.711 13.5738C45.4598 13.3226 45.0894 13.2361 44.7554 13.3487C44.4167 13.465 44.1767 13.759 44.1302 14.1116C44.0864 14.4643 44.2428 14.8095 44.5405 15.0058L46.7065 16.7829H7.25826L24.2637 2.82648C25.6444 1.7509 27.5313 1.58715 29.0759 2.40871C29.2936 2.52874 29.5048 2.67017 29.7011 2.82648L38.075 9.67349C38.4713 9.93959 39.0054 9.85586 39.3068 9.48927C39.6083 9.11803 39.5832 8.58024 39.2454 8.24156L30.8716 1.39455C30.7804 1.31825 30.6827 1.24568 30.5841 1.17962C30.2575 0.933057 29.9049 0.72185 29.5299 0.555304C27.4002 -0.418854 24.9038 -0.0959956 23.0932 1.39455L13.2037 9.51718L4.31811 16.7829H3.72171C2.18092 16.7829 0.930427 18.0334 0.930427 19.5742V22.3655C0.930427 23.9062 2.18092 25.1567 3.72171 25.1567H4.65214V26.0872C4.65586 27.2688 5.40113 28.3183 6.51299 28.711V41.1424C5.40113 41.535 4.65586 42.5836 4.65214 43.7653V44.6957C2.0823 44.6957 0 46.778 0 49.3478V53.0696C0 53.5832 0.417762 54 0.930427 54H53.0344C53.547 54 53.9648 53.5832 53.9648 53.0696V49.3478C53.9648 46.778 51.8825 44.6957 49.3127 44.6957Z" fill="#033C59"/>
</g>
</svg>
