<svg width="102" height="100" viewBox="0 0 102 100" fill="none" xmlns="http://www.w3.org/2000/svg">
<path fill-rule="evenodd" clip-rule="evenodd" d="M93.2855 0L87.2493 14.0845V93.9638C87.2501 97.2978 84.5471 100 81.2131 100H15.0159L21.0521 89.0767V6.03622C21.0521 2.70221 23.7549 0 27.0883 0H93.2855Z" fill="#F0F0F2"/>
<path fill-rule="evenodd" clip-rule="evenodd" d="M74.372 85.9155H8.37598V93.9638C8.37598 97.2978 11.0782 100 14.4122 100H81.4142" fill="#DADADC"/>
<path fill-rule="evenodd" clip-rule="evenodd" d="M74.5732 85.9155V93.662C74.5732 97.1626 77.4107 100 80.9113 100C84.4113 100 87.2493 97.1626 87.2493 93.662V85.9155" fill="#F0F0F2"/>
<path fill-rule="evenodd" clip-rule="evenodd" d="M66.9015 69.9195H45.1333C44.3003 69.9195 43.6242 69.2437 43.6242 68.4105C43.6242 67.5773 44.3003 66.9014 45.1333 66.9014H66.9015C67.7347 66.9014 68.4106 67.5773 68.4106 68.4105C68.4106 69.2437 67.7347 69.9195 66.9015 69.9195ZM64.7888 60.8652H45.1333C44.3003 60.8652 43.6242 60.1893 43.6242 59.3561C43.6242 58.5229 44.3003 57.8471 45.1333 57.8471H64.7888C65.622 57.8471 66.2979 58.5229 66.2979 59.3561C66.2979 60.1893 65.622 60.8652 64.7888 60.8652ZM66.9015 51.8109H45.1333C44.3003 51.8109 43.6242 51.135 43.6242 50.3018C43.6242 49.4686 44.3003 48.7928 45.1333 48.7928H66.9015C67.7347 48.7928 68.4106 49.4686 68.4106 50.3018C68.4106 51.135 67.7347 51.8109 66.9015 51.8109ZM73.8431 42.7565H45.1333C44.3003 42.7565 43.6242 42.0807 43.6242 41.2475C43.6242 40.4143 44.3003 39.7384 45.1333 39.7384H73.8431C74.6763 39.7384 75.3522 40.4143 75.3522 41.2475C75.3522 42.0807 74.6763 42.7565 73.8431 42.7565ZM73.8431 33.7022H30.0427C29.2097 33.7022 28.5337 33.0264 28.5337 32.1932C28.5337 31.36 29.2097 30.6841 30.0427 30.6841H73.8431C74.6763 30.6841 75.3522 31.36 75.3522 32.1932C75.3522 33.0264 74.6763 33.7022 73.8431 33.7022ZM93.6242 0C97.1454 0 100 2.85473 100 6.37585V14.0845H87.2494V6.37585C87.2494 2.85473 90.1033 0 93.6242 0Z" fill="#DADADC"/>
<path fill-rule="evenodd" clip-rule="evenodd" d="M57.9476 56.338V99.9999H21.1267V56.338C21.1267 53.004 23.8289 50.3018 27.1629 50.3018H51.9114C55.2454 50.3018 57.9476 53.004 57.9476 56.338Z" fill="#E1E1E3"/>
<path fill-rule="evenodd" clip-rule="evenodd" d="M44.1651 56.3381H50.1007C50.9896 56.3381 51.7103 57.0589 51.7103 57.9478V64.1852C51.7103 65.0742 50.9896 65.7949 50.1007 65.7949H44.1651C43.2761 65.7949 42.5554 65.0742 42.5554 64.1852V57.9478C42.5554 57.0589 43.2761 56.3381 44.1651 56.3381Z" fill="#52BBE9"/>
<path fill-rule="evenodd" clip-rule="evenodd" d="M44.1651 71.8311H50.1007C50.9896 71.8311 51.7103 72.5518 51.7103 73.4407V79.6781C51.7103 80.5671 50.9896 81.2878 50.1007 81.2878H44.1651C43.2761 81.2878 42.5554 80.5671 42.5554 79.6781V73.4407C42.5554 72.5518 43.2761 71.8311 44.1651 71.8311Z" fill="#52BBE9"/>
<path fill-rule="evenodd" clip-rule="evenodd" d="M39.839 50.3018V99.9999H21.1267V56.338C21.1267 53.004 23.8289 50.3018 27.1629 50.3018H39.839Z" fill="#C8C5CC"/>
<path fill-rule="evenodd" clip-rule="evenodd" d="M6.03622 41.2476H30.7847C34.1187 41.2476 36.8209 43.9498 36.8209 47.2838V100H0V47.2838C0 43.9498 2.70221 41.2476 6.03622 41.2476Z" fill="#E1E1E3"/>
<path fill-rule="evenodd" clip-rule="evenodd" d="M14.2637 78.2695H22.5571C24.2243 78.2695 25.5752 79.6206 25.5752 81.2876V99.9999H11.2456V81.2876C11.2456 79.6206 12.5965 78.2695 14.2637 78.2695Z" fill="#AEADB3"/>
<path fill-rule="evenodd" clip-rule="evenodd" d="M22.5572 78.2695H19.5391C21.2063 78.2695 22.5572 79.6206 22.5572 81.2876V99.9999H25.5753V81.2876C25.5753 79.6206 24.2244 78.2695 22.5572 78.2695Z" fill="#8B8893"/>
<path fill-rule="evenodd" clip-rule="evenodd" d="M7.64579 47.2837H13.7826C14.6715 47.2837 15.3923 48.0044 15.3923 48.8933V55.1308C15.3923 56.0197 14.6715 56.7404 13.7826 56.7404H7.64579C6.75686 56.7404 6.03613 56.0197 6.03613 55.1308V48.8933C6.03613 48.0044 6.75686 47.2837 7.64579 47.2837Z" fill="#52BBE9"/>
<path fill-rule="evenodd" clip-rule="evenodd" d="M13.7828 47.2837H10.7646C11.6536 47.2837 12.3743 48.0044 12.3743 48.8933V55.1308C12.3743 56.0197 11.6536 56.7404 10.7646 56.7404H13.7828C14.6717 56.7404 15.3924 56.0197 15.3924 55.1308V48.8933C15.3924 48.0044 14.6717 47.2837 13.7828 47.2837Z" fill="#1CABE1"/>
<path fill-rule="evenodd" clip-rule="evenodd" d="M23.0381 47.2837H28.9737C29.8627 47.2837 30.5834 48.0044 30.5834 48.8933V55.1308C30.5834 56.0197 29.8627 56.7404 28.9737 56.7404H23.0381C22.1492 56.7404 21.4285 56.0197 21.4285 55.1308V48.8933C21.4285 48.0044 22.1492 47.2837 23.0381 47.2837Z" fill="#52BBE9"/>
<path fill-rule="evenodd" clip-rule="evenodd" d="M7.64579 62.7766H13.7826C14.6715 62.7766 15.3923 63.4973 15.3923 64.3863V70.6237C15.3923 71.5126 14.6715 72.2334 13.7826 72.2334H7.64579C6.75686 72.2334 6.03613 71.5126 6.03613 70.6237V64.3863C6.03613 63.4973 6.75686 62.7766 7.64579 62.7766Z" fill="#52BBE9"/>
<path fill-rule="evenodd" clip-rule="evenodd" d="M13.7828 62.7766H10.7646C11.6536 62.7766 12.3743 63.4973 12.3743 64.3863V70.6237C12.3743 71.5126 11.6536 72.2334 10.7646 72.2334H13.7828C14.6717 72.2334 15.3924 71.5126 15.3924 70.6237V64.3863C15.3924 63.4973 14.6717 62.7766 13.7828 62.7766Z" fill="#1CABE1"/>
<path fill-rule="evenodd" clip-rule="evenodd" d="M23.0381 62.7766H28.9737C29.8627 62.7766 30.5834 63.4973 30.5834 64.3863V70.6237C30.5834 71.5126 29.8627 72.2334 28.9737 72.2334H23.0381C22.1492 72.2334 21.4285 71.5126 21.4285 70.6237V64.3863C21.4285 63.4973 22.1492 62.7766 23.0381 62.7766Z" fill="#52BBE9"/>
<path fill-rule="evenodd" clip-rule="evenodd" d="M29.2167 62.7766H25.9558C26.9162 62.7766 27.6949 63.4974 27.6949 64.3863V70.6237C27.6949 71.5127 26.9162 72.2334 25.9558 72.2334H29.2167C30.1771 72.2334 30.9558 71.5127 30.9558 70.6237V64.3863C30.9558 63.4974 30.1771 62.7766 29.2167 62.7766ZM29.2167 47.2837H25.9558C26.9162 47.2837 27.6949 48.0044 27.6949 48.8933V55.1308C27.6949 56.0197 26.9162 56.7404 25.9558 56.7404H29.2167C30.1771 56.7404 30.9558 56.0197 30.9558 55.1308V48.8933C30.9558 48.0044 30.1771 47.2837 29.2167 47.2837Z" fill="#1CABE1"/>
<path fill-rule="evenodd" clip-rule="evenodd" d="M87.2494 41.0602V79.0602C87.0065 79.0697 86.7629 79.0743 86.5192 79.0743C76.018 79.0743 67.5051 70.5616 67.5051 60.0602C67.5051 49.559 76.018 41.0461 86.5192 41.0461C86.7629 41.0461 87.0065 41.0502 87.2494 41.0602Z" fill="#E1E1E3"/>
<path fill-rule="evenodd" clip-rule="evenodd" d="M86.5192 46.7524C86.7645 46.7524 87.0081 46.7588 87.2494 46.7729V43.4168C87.0081 43.4043 86.7645 43.3987 86.5192 43.3987C77.3172 43.3987 69.8574 50.8584 69.8574 60.0605C69.8574 69.2625 77.3172 76.7222 86.5192 76.7222C86.7645 76.7222 87.0081 76.7166 87.2494 76.7041V73.348C87.0081 73.3621 86.7645 73.3685 86.5192 73.3685C79.1697 73.3685 73.2111 67.4099 73.2111 60.0605C73.2111 52.711 79.1697 46.7524 86.5192 46.7524Z" fill="#E1E1E3"/>
<path fill-rule="evenodd" clip-rule="evenodd" d="M86.5192 75.0502C78.2406 75.0502 71.5293 68.3389 71.5293 60.0603C71.5293 51.7816 78.2406 45.0703 86.5192 45.0703C94.7981 45.0703 101.509 51.7816 101.509 60.0603C101.5 68.3349 94.7939 75.0407 86.5192 75.0502Z" fill="#24B378"/>
<mask id="mask0_7_10983" style="mask-type:luminance" maskUnits="userSpaceOnUse" x="83" y="45" width="19" height="31">
<path fill-rule="evenodd" clip-rule="evenodd" d="M83.501 45.0703H101.509V75.0523H83.501V45.0703Z" fill="white"/>
</mask>
<g mask="url(#mask0_7_10983)">
<path fill-rule="evenodd" clip-rule="evenodd" d="M86.5191 45.0703C85.5052 45.0695 84.4945 45.1717 83.501 45.3753C90.471 46.8089 95.4736 52.9442 95.4736 60.0603C95.4736 67.1764 90.471 73.3116 83.501 74.7452C89.1034 75.8959 94.8724 73.7597 98.373 69.2371C101.874 64.7148 102.496 58.5945 99.9772 53.4597C97.4589 48.325 92.2386 45.0703 86.5191 45.0703Z" fill="#19AC66"/>
</g>
<path fill-rule="evenodd" clip-rule="evenodd" d="M84.2295 65.3326C83.8295 65.3326 83.4458 65.1738 83.1629 64.8909L80.2148 61.9426C79.8305 61.5615 79.6796 61.005 79.8186 60.4825C79.9579 59.9597 80.3665 59.5519 80.8885 59.4126C81.411 59.2736 81.9683 59.4245 82.3486 59.808L84.2303 61.6897L90.6893 55.2298C91.2788 54.6402 92.2337 54.6402 92.8233 55.2298C93.4128 55.8193 93.4128 56.775 92.8233 57.3644L85.2969 64.8909C85.014 65.1738 84.6303 65.3326 84.2295 65.3326Z" fill="white"/>
<path fill-rule="evenodd" clip-rule="evenodd" d="M78.3324 15.7484H68.8262C67.993 15.7484 67.3171 15.0731 67.3171 14.2393C67.3171 13.4061 67.993 12.7303 68.8262 12.7303H78.3324C79.1664 12.7303 79.8415 13.4061 79.8415 14.2393C79.8415 15.0731 79.1664 15.7484 78.3324 15.7484ZM78.3324 10.5633H68.8262C67.993 10.5633 67.3171 9.88742 67.3171 9.05422C67.3171 8.22102 67.993 7.54517 68.8262 7.54517H78.3324C79.1664 7.54517 79.8415 8.22102 79.8415 9.05422C79.8415 9.88742 79.1664 10.5633 78.3324 10.5633Z" fill="#24B378"/>
<path fill-rule="evenodd" clip-rule="evenodd" d="M75.7403 28.1729C75.3276 28.1735 74.933 28.0047 74.6485 27.7059L67.7352 20.4673C67.3179 20.0303 67.2014 19.3872 67.4389 18.8317C67.6763 18.276 68.2218 17.916 68.8262 17.916H70.5546C72.5853 17.916 74.2312 16.2701 74.2312 14.2399C74.2312 12.2091 72.5853 10.5633 70.5546 10.5633H68.8262C67.993 10.5633 67.3171 9.88742 67.3171 9.05422C67.3171 8.22102 67.993 7.54517 68.8262 7.54517H70.5546C73.9381 7.54517 76.7888 10.0697 77.1998 13.4281C77.6101 16.7866 75.4503 19.9226 72.1672 20.7375L76.8312 25.6216C77.2485 26.0578 77.3656 26.7015 77.1276 27.2572C76.8902 27.8128 76.3447 28.1729 75.7403 28.1729Z" fill="#24B378"/>
<path fill-rule="evenodd" clip-rule="evenodd" d="M31.3883 9.05444H60.7778C61.8893 9.05444 62.7899 9.95525 62.7899 11.0665V22.1329C62.7899 23.2442 61.8893 24.145 60.7778 24.145H31.3883C30.277 24.145 29.3762 23.2442 29.3762 22.1329V11.0665C29.3762 9.95525 30.277 9.05444 31.3883 9.05444Z" fill="#DADADC"/>
</svg>
