<svg width="28" height="28" viewBox="0 0 28 28" fill="none" xmlns="http://www.w3.org/2000/svg">
<path fill-rule="evenodd" clip-rule="evenodd" d="M28 14C28 21.7338 21.7338 28 14 28C6.26617 28 0 21.7338 0 14C0 6.26617 6.26617 0 14 0C21.7338 0 28 6.26617 28 14Z" fill="#50B748"/>
<path fill-rule="evenodd" clip-rule="evenodd" d="M16.944 27.6718C17.2123 27.617 17.4818 27.5575 17.7455 27.4898C18.197 27.3661 18.6391 27.2156 19.072 27.0476C19.5095 26.8785 19.9341 26.6871 20.3483 26.4783C20.7671 26.2636 21.1731 26.0315 21.5651 25.7806C21.9571 25.5298 22.3351 25.2568 22.7038 24.9651C23.069 24.6781 23.4201 24.3678 23.7526 24.04C24.0898 23.7156 24.4083 23.3738 24.7093 23.0191C25.0103 22.6633 25.2926 22.29 25.5528 21.9026C25.8165 21.52 26.0626 21.1233 26.2866 20.7126C26.5095 20.3031 26.7148 19.8831 26.8968 19.455C27.08 19.0221 27.2386 18.5846 27.3751 18.1378C27.4941 17.7458 27.5945 17.3538 27.6808 16.9525L19.359 8.63531C17.9415 7.20964 16.0141 6.41164 14.004 6.41164C11.9891 6.40697 10.0583 7.20964 8.63498 8.63531C7.21514 10.0575 6.41248 11.9848 6.41248 13.9996C6.41248 16.0098 7.21514 17.9418 8.63498 19.364L16.944 27.6671V27.6718Z" fill="#10A711"/>
<path fill-rule="evenodd" clip-rule="evenodd" d="M17.4544 11.6667C17.3447 11.676 17.2397 11.7168 17.1487 11.7857L12.888 14.9847L10.914 13.006C10.4859 12.565 9.64353 13.4027 10.0892 13.8308L12.4225 16.1642C12.6279 16.3648 12.9475 16.3882 13.1844 16.219L17.851 12.719C18.243 12.4367 18.0015 11.676 17.5139 11.6667H17.4544ZM13.9999 6.41199C15.9412 6.41199 17.8779 7.15515 19.3642 8.63565C20.7852 10.0578 21.5879 11.9852 21.5879 14C21.5879 16.0148 20.7852 17.9422 19.3642 19.3643C17.942 20.7853 16.0147 21.588 13.9999 21.588C11.985 21.588 10.0577 20.7853 8.63553 19.3643C7.21453 17.9422 6.41187 16.0148 6.41187 14C6.41187 11.9852 7.21453 10.0578 8.63553 8.63565C10.0577 7.20999 11.9897 6.41199 13.9999 6.41199Z" fill="white"/>
</svg>
