<svg width="20" height="21" viewBox="0 0 20 21" fill="none" xmlns="http://www.w3.org/2000/svg">
<path fill-rule="evenodd" clip-rule="evenodd" d="M19.754 18.6049L16.3162 15.246L16.2382 15.1251C16.0862 14.9721 15.8832 14.8901 15.6682 14.8901C15.4572 14.8901 15.2502 14.9721 15.1022 15.1251C12.1804 17.8039 7.68059 17.9489 4.58273 15.464C1.48488 12.9762 0.754914 8.63236 2.87581 5.30952C4.99671 1.98768 9.30951 0.719736 12.9533 2.34466C16.5982 3.96958 18.4451 7.98339 17.2661 11.7262C17.1841 12.0002 17.2501 12.2932 17.4491 12.5002C17.6451 12.7072 17.9421 12.7932 18.2231 12.7302C18.5041 12.6682 18.7311 12.4602 18.8171 12.1912C20.223 7.7504 18.0981 2.96963 13.8173 0.940726C9.5355 -1.08518 4.37974 0.250759 1.68887 4.08558C-1.003 7.9214 -0.42503 13.1012 3.05181 16.281C6.52364 19.4569 11.8524 19.6748 15.5862 16.793L18.6291 19.7688C18.9421 20.0778 19.449 20.0778 19.766 19.7688C20.078 19.4598 20.078 18.9599 19.766 18.6479L19.754 18.6049Z" fill="white"/>
</svg>
