<svg width="18" height="18" viewBox="0 0 18 18" fill="none" xmlns="http://www.w3.org/2000/svg">
<path fill-rule="evenodd" clip-rule="evenodd" d="M18 9C18 13.9705 13.9705 18 9 18C4.02947 18 0 13.9705 0 9C0 4.02947 4.02947 0 9 0C13.9705 0 18 4.02947 18 9Z" fill="#ECB13A"/>
<path fill-rule="evenodd" clip-rule="evenodd" d="M17.3229 8.57893C17.3229 13.2879 13.5056 17.1052 8.79658 17.1052C4.0877 17.1052 0.270264 13.2879 0.270264 8.57893C0.270264 3.86991 4.0877 0.0526123 8.79658 0.0526123C13.5056 0.0526123 17.3229 3.86991 17.3229 8.57893Z" fill="#FFDE4F"/>
<path fill-rule="evenodd" clip-rule="evenodd" d="M13.8561 8.61044C14.2913 8.60703 14.6386 8.97545 14.6001 9.41047C14.2983 12.7123 11.951 15.2912 9.07376 15.3228C6.1966 15.3544 3.7965 12.8245 3.42467 9.52987C3.37541 9.09826 3.71576 8.71928 4.15092 8.7157L13.8561 8.61044Z" fill="#645033"/>
<path fill-rule="evenodd" clip-rule="evenodd" d="M6.3649 5.76137C6.3649 6.42997 5.82297 6.97189 5.15437 6.97189C4.48595 6.97189 3.94385 6.42997 3.94385 5.76137C3.94385 5.09281 4.48595 4.55084 5.15437 4.55084C5.82297 4.55084 6.3649 5.09281 6.3649 5.76137Z" fill="#645033"/>
<path fill-rule="evenodd" clip-rule="evenodd" d="M14.1649 5.77553C14.1649 6.44395 13.623 6.98606 12.9544 6.98606C12.2858 6.98606 11.7439 6.44395 11.7439 5.77553C11.7439 5.10693 12.2858 4.565 12.9544 4.565C13.623 4.565 14.1649 5.10693 14.1649 5.77553Z" fill="#645033"/>
<path fill-rule="evenodd" clip-rule="evenodd" d="M9.0069 9.4386L4.04199 9.49123C4.10161 10.0913 4.26308 10.6702 4.51568 11.1966L4.56831 11.3052L9.02803 11.2562L13.4876 11.2069L13.5368 11.0983C13.7754 10.5684 13.9262 9.98246 13.9718 9.38239L9.0069 9.4386Z" fill="white"/>
<path fill-rule="evenodd" clip-rule="evenodd" d="M11.4457 13.1754C9.95447 12.1615 8.12293 12.1824 6.65283 13.2281L6.27026 13.5018L6.65981 13.7649C8.15104 14.7789 9.98258 14.758 11.4527 13.7123L11.8352 13.4386L11.4457 13.1754Z" fill="#EF4F43"/>
</svg>
