<svg width="19" height="15" viewBox="0 0 19 15" fill="none" xmlns="http://www.w3.org/2000/svg">
<path fill-rule="evenodd" clip-rule="evenodd" d="M18.8015 1.98334L18.0487 1.22848L11.0665 8.21063C10.1942 9.0825 8.72697 9.0825 7.85232 8.21063L0.872556 1.26894L0.117301 2.02182L5.31484 7.21896L0.117301 12.4161L0.872556 13.169L6.06732 7.97183L7.09984 9.00396C7.7353 9.63942 8.56672 9.99563 9.43899 9.99563C10.3136 9.99563 11.1451 9.63942 11.7809 9.00396L12.8107 7.97183L18.0082 13.169L18.7607 12.4161L13.5659 7.21896L18.8015 1.98334Z" fill="#167F71"/>
<path fill-rule="evenodd" clip-rule="evenodd" d="M1.62515 1.07061C1.30742 1.07061 1.071 1.3094 1.071 1.62515V12.8128C1.071 13.1285 1.30742 13.3673 1.62515 13.3673H17.2935C17.6117 13.3673 17.85 13.1285 17.85 12.8128V1.62515C17.85 1.3094 17.6117 1.07061 17.2935 1.07061H1.62515ZM17.3344 14.5168H1.666C0.752875 14.5168 0 13.764 0 12.8512V1.66561C0 0.752875 0.752875 0 1.666 0H17.3344C18.2467 0 19 0.752875 19 1.66561V12.8512C19 13.764 18.2467 14.5168 17.3344 14.5168Z" fill="#167F71"/>
</svg>
