<svg width="16" height="20" viewBox="0 0 16 20" fill="none" xmlns="http://www.w3.org/2000/svg">
<path fill-rule="evenodd" clip-rule="evenodd" d="M7.99213 1.53131C6.98014 1.52731 6.01216 1.9303 5.29717 2.64829C4.58218 3.36728 4.18019 4.34426 4.18019 5.35925C4.17619 6.91022 5.10217 8.3122 6.52715 8.91019C7.94913 9.50418 9.5901 9.18019 10.6831 8.08221C11.7731 6.98822 12.1011 5.33625 11.5121 3.90227C10.9221 2.46929 9.5311 1.53131 7.99213 1.53131ZM5.96516 0.406324C7.95313 -0.421663 10.2461 0.0393299 11.7651 1.57431C13.289 3.10528 13.742 5.41425 12.9141 7.41422C12.0901 9.41819 10.1441 10.7232 7.99213 10.7192C5.05517 10.7112 2.67621 8.3162 2.67621 5.35925L2.68421 5.12925C2.77021 3.05228 4.04719 1.20731 5.96516 0.406324ZM5.88316 12.7661C7.32014 12.6451 8.76612 12.6451 10.2031 12.7661C10.9881 12.8211 11.7691 12.9341 12.5351 13.1101C14.195 13.4461 15.281 14.1061 15.734 15.0741C16.097 15.8751 16.086 16.8011 15.707 17.5981C15.246 18.567 14.16 19.227 12.4721 19.571C11.7111 19.742 10.9331 19.852 10.1481 19.903C9.28511 20 8.55112 20 7.86713 20H7.59813C7.21114 19.957 6.91814 19.629 6.91814 19.239C6.91814 18.848 7.21114 18.52 7.59813 18.477H8.19512C8.79311 18.469 9.39811 18.442 10.0001 18.3911C10.7111 18.344 11.4181 18.2421 12.1171 18.0901C13.312 17.8281 14.066 17.4491 14.301 16.9461C14.484 16.5631 14.484 16.1171 14.301 15.7351C14.066 15.2231 13.312 14.8281 12.1401 14.5901C11.4331 14.4301 10.7151 14.3241 9.9921 14.2811C8.64112 14.1561 7.28114 14.1561 5.93016 14.2811C5.21517 14.3281 4.50418 14.4261 3.80519 14.5781C2.60521 14.8441 1.86322 15.2231 1.62123 15.7231C1.53123 15.9141 1.48823 16.1211 1.48823 16.3321C1.48823 16.5431 1.53123 16.7541 1.62123 16.9461C2.03522 17.5201 2.66821 17.8911 3.3672 17.9771L3.4692 18.0041C3.69919 18.0821 3.87919 18.2701 3.94919 18.512C4.03119 18.781 3.95319 19.078 3.75019 19.278C3.5472 19.477 3.2502 19.543 2.9842 19.453C1.85522 19.27 0.867237 18.594 0.281246 17.6061C-0.0937486 16.8091 -0.0937486 15.8791 0.281246 15.0821C0.746239 14.0861 1.82822 13.4461 3.5002 13.1021C4.28518 12.9301 5.08217 12.8211 5.88316 12.7661Z" fill="#202244"/>
</svg>
