<svg width="140" height="142" viewBox="0 0 140 142" fill="none" xmlns="http://www.w3.org/2000/svg">
<mask id="mask0_7_7772" style="mask-type:luminance" maskUnits="userSpaceOnUse" x="0" y="0" width="140" height="142">
<path fill-rule="evenodd" clip-rule="evenodd" d="M0 0H139.669V142H0V0Z" fill="white"/>
</mask>
<g mask="url(#mask0_7_7772)">
<path fill-rule="evenodd" clip-rule="evenodd" d="M69.8316 123.069C41.0765 123.069 17.7632 99.7532 17.7632 71.0004C17.7632 42.2429 41.0765 18.9319 69.8316 18.9319C98.5868 18.9319 121.9 42.2429 121.9 71.0004C121.9 99.7532 98.5868 123.069 69.8316 123.069ZM138.031 83.2033L134.758 82.1383C133.668 81.781 132.985 80.6885 133.148 79.5525C133.924 73.8724 133.924 68.1191 133.148 62.4483C132.985 61.3123 133.668 60.2198 134.758 59.8625L138.031 58.7975C139.275 58.3944 139.957 57.0614 139.552 55.8177L135.159 42.3093C134.758 41.0657 133.425 40.3832 132.191 40.7886L128.899 41.8513C127.814 42.2017 126.625 41.7161 126.096 40.7061C123.377 35.6582 119.985 31.0088 116.032 26.8656C115.226 26.0434 115.128 24.7723 115.799 23.8424L117.839 21.0436C118.6 19.9877 118.366 18.5013 117.31 17.7318L105.822 9.39495C104.759 8.6254 103.282 8.85672 102.515 9.91257L100.492 12.7022C99.8098 13.6344 98.5593 13.9298 97.5401 13.4191C92.3777 10.9318 86.9129 9.15218 81.2764 8.13298C80.1381 7.94517 79.3159 6.96033 79.3067 5.81516V2.37966C79.3067 1.74523 79.0548 1.14517 78.6173 0.698552C78.1707 0.249646 77.5615 0 76.9362 0H62.727C61.4215 0 60.3657 1.05584 60.3657 2.35904V5.79455C60.3565 6.95116 59.5251 7.92685 58.3983 8.11465C52.7618 9.14301 47.2947 10.9249 42.1323 13.4099C41.104 13.9207 39.8603 13.6137 39.1801 12.6862L37.1485 9.91257C36.3813 8.85672 34.904 8.6254 33.839 9.39495L22.353 17.7318C21.2971 18.5013 21.0635 19.9786 21.8331 21.0436L23.8646 23.8309C24.5357 24.7723 24.4372 26.0434 23.631 26.8656C19.6779 31.0088 16.2951 35.6582 13.5764 40.7061C13.0382 41.7161 11.8587 42.2017 10.7662 41.8513L7.48185 40.7886C6.23819 40.3832 4.90522 41.0657 4.50441 42.3002L0.11155 55.8177C-0.282388 57.0614 0.397842 58.3852 1.63233 58.7975L4.91438 59.8625C6.00687 60.2198 6.67794 61.3123 6.51532 62.4483C5.7389 68.1191 5.7389 73.8724 6.51532 79.5433C6.67794 80.6885 6.00687 81.781 4.91438 82.1383L1.63233 83.2033C0.397842 83.6064 -0.282388 84.9393 0.11155 86.183L4.50441 99.6914C4.90522 100.935 6.23819 101.615 7.48185 101.212L10.7662 100.147C11.8587 99.799 13.0382 100.282 13.5764 101.292C16.2951 106.329 19.6779 110.992 23.631 115.133C24.4372 115.948 24.5357 117.226 23.8646 118.156L21.8331 120.957C21.0635 122.013 21.2971 123.49 22.353 124.26L33.839 132.606C34.904 133.375 36.3813 133.142 37.1485 132.088L39.1709 129.296C39.8511 128.366 41.104 128.071 42.1232 128.579C47.2856 131.067 52.7526 132.849 58.3891 133.868C59.5251 134.056 60.3473 135.04 60.3565 136.186V139.621C60.3565 140.255 60.6084 140.856 61.0459 141.302C61.4925 141.749 62.1017 142.001 62.727 142.001H76.9362C78.2417 142.001 79.2976 140.945 79.2976 139.637V136.202C79.3067 135.047 80.1381 134.074 81.2673 133.886C86.9038 132.855 92.3662 131.076 97.5309 128.589C98.5593 128.08 99.8006 128.382 100.483 129.315L102.506 132.095C103.275 133.16 104.759 133.394 105.813 132.624L117.303 124.276C118.359 123.506 118.593 122.031 117.823 120.966L115.789 118.174C115.118 117.245 115.217 115.964 116.023 115.142C119.978 110.999 123.368 106.347 126.087 101.301C126.616 100.291 127.805 99.8082 128.89 100.156L132.181 101.221C133.416 101.624 134.749 100.944 135.152 99.7097L139.545 86.1899C139.739 85.6012 139.687 84.9462 139.41 84.3828C139.123 83.8285 138.633 83.4002 138.031 83.2033Z" fill="#6B8199"/>
</g>
<path fill-rule="evenodd" clip-rule="evenodd" d="M101.629 53.5538C101.629 48.499 97.8889 44.239 92.8777 43.5863C87.8779 42.9335 83.1621 46.1102 81.8841 50.9863C80.6038 55.8716 83.1438 60.9424 87.8229 62.8411V70.4267L83.808 74.4348L87.816 78.452L83.808 82.4693L87.816 86.4774V91.1748L91.5905 96.193L95.3581 91.1748V62.8411C99.1417 61.3112 101.62 57.6329 101.629 53.5538Z" fill="#5AB3A0"/>
<path fill-rule="evenodd" clip-rule="evenodd" d="M49.2187 57.2576C49.2187 52.1937 53.3161 48.0963 58.38 48.0963C63.4439 48.0963 67.5413 52.1937 67.5413 57.2576V66.4189H49.2187V57.2576ZM74.4124 66.4189H72.122V57.2576C72.122 49.672 65.9656 43.5156 58.38 43.5156C50.7944 43.5156 44.638 49.672 44.638 57.2576V66.4189H42.3477C41.0857 66.4189 40.0573 67.4473 40.0573 68.7093V93.903C40.0573 95.1649 41.0857 96.1933 42.3477 96.1933H74.4124C75.6743 96.1933 76.7027 95.1649 76.7027 93.903V68.7093C76.7027 67.4473 75.6743 66.4189 74.4124 66.4189Z" fill="#D9777D"/>
<mask id="mask1_7_7772" style="mask-type:luminance" maskUnits="userSpaceOnUse" x="0" y="-1" width="140" height="143">
<path fill-rule="evenodd" clip-rule="evenodd" d="M0 142H139.669V-0.000732426H0V142Z" fill="white"/>
</mask>
<g mask="url(#mask1_7_7772)">
<path fill-rule="evenodd" clip-rule="evenodd" d="M56.0904 84.7415H60.671V77.8705H56.0904V84.7415Z" fill="#F5F5F5"/>
<path fill-rule="evenodd" clip-rule="evenodd" d="M94.4538 50.9591C94.4538 52.5417 93.1712 53.822 91.5909 53.822C90.0083 53.822 88.728 52.5417 88.728 50.9591C88.728 49.3765 90.0083 48.0962 91.5909 48.0962C93.1712 48.0962 94.4538 49.3765 94.4538 50.9591Z" fill="#F5F5F5"/>
</g>
</svg>
