<svg width="20" height="20" viewBox="0 0 20 20" fill="none" xmlns="http://www.w3.org/2000/svg">
<path fill-rule="evenodd" clip-rule="evenodd" d="M7.2752 0C6.76658 0 6.35786 0.408719 6.35786 0.917348V6.37602H1.099C1.0445 6.36694 0.980926 6.35786 0.917348 6.35786C0.408719 6.35786 0 6.76658 0 7.2752C0 7.77475 0.399637 8.18347 0.908265 8.19255H8.17439V1.099C8.18347 1.0445 8.19255 0.980926 8.19255 0.917348C8.19255 0.408719 7.77475 0 7.2752 0ZM19.0827 11.8074C19.02 11.8074 18.9555 11.8165 18.901 11.8256H11.8074V19.0917C11.8165 19.6004 12.2162 20 12.7248 20C13.2343 20 13.6421 19.5913 13.6421 19.0827C13.6421 19.0191 13.6331 18.9555 13.624 18.901V13.6421H19.0827C19.5922 13.6421 20 13.2334 20 12.7248C20 12.2162 19.5922 11.8074 19.0827 11.8074ZM8.17439 18.901V11.8256H1.099C1.0445 11.8165 0.980926 11.8074 0.917348 11.8074C0.408719 11.8074 0 12.2162 0 12.7248C0 13.2334 0.399637 13.6331 0.908265 13.6421H6.35786V19.0917C6.36694 19.6004 6.76658 20 7.2752 20C7.77475 20 8.19255 19.5913 8.19255 19.0827C8.19255 19.0191 8.18347 18.9555 8.17439 18.901ZM20 7.2752C20 7.77475 19.5922 8.19255 19.0827 8.19255H11.8074V0.917348C11.8074 0.408719 12.2162 0 12.7248 0C13.2343 0 13.6421 0.408719 13.6421 0.917348C13.6421 0.980926 13.6331 1.0445 13.624 1.099V6.37602H18.901C18.9555 6.36694 19.02 6.35786 19.0827 6.35786C19.5922 6.35786 20 6.76658 20 7.2752Z" fill="white"/>
</svg>
