<svg width="19" height="18" viewBox="0 0 19 18" fill="none" xmlns="http://www.w3.org/2000/svg">
<path fill-rule="evenodd" clip-rule="evenodd" d="M4.03487 1.0862C5.29623 1.0862 6.32079 2.11212 6.32079 3.37212C6.32079 4.63238 5.29623 5.65803 4.03487 5.65803C2.77488 5.65803 1.75005 4.63238 1.75005 3.37212C1.75005 2.11212 2.77488 1.0862 4.03487 1.0862ZM4.03487 6.74423C5.89445 6.74423 7.40699 5.2317 7.40699 3.37212C7.40699 1.51281 5.89445 0 4.03487 0C2.17665 0 0.663844 1.51281 0.663844 3.37212C0.663844 5.2317 2.17557 6.74423 4.03487 6.74423Z" fill="#1D1D1B"/>
<path fill-rule="evenodd" clip-rule="evenodd" d="M2.81184 3.37211L2.81103 3.30015C2.80994 3.26946 2.80994 3.26946 2.81619 3.23334C2.84389 3.08589 2.74721 2.9436 2.60085 2.91617C2.4534 2.88847 2.31137 2.98406 2.28259 3.13151C2.26874 3.19288 2.26467 3.25561 2.26793 3.31807L2.26874 3.37211C2.27309 3.51847 2.39284 3.63524 2.54029 3.63524C2.68693 3.63524 2.80668 3.51956 2.81184 3.37211Z" fill="#1D1D1B"/>
<path fill-rule="evenodd" clip-rule="evenodd" d="M2.79171 2.81216C2.88295 2.81216 2.96794 2.76763 3.01764 2.69132C3.24465 2.35188 3.62645 2.14822 4.03487 2.14822C4.18558 2.14822 4.30642 2.02711 4.30642 1.87667C4.30642 1.72705 4.18558 1.60512 4.03487 1.60512C3.44533 1.60512 2.89462 1.89894 2.56686 2.38881C2.51174 2.47272 2.50631 2.57971 2.55301 2.66797C2.59972 2.75704 2.69205 2.81216 2.79171 2.81216Z" fill="#1D1D1B"/>
<path fill-rule="evenodd" clip-rule="evenodd" d="M11.6384 1.0862C12.8998 1.0862 13.9244 2.11212 13.9244 3.37212C13.9244 4.63238 12.8998 5.65803 11.6384 5.65803C10.3782 5.65803 9.35252 4.63238 9.35252 3.37212C9.35334 2.11212 10.3782 1.0862 11.6384 1.0862ZM11.6384 6.74423C13.498 6.74423 15.0106 5.2317 15.0106 3.37212C15.0106 1.51281 13.498 0 11.6384 0C9.77886 0 8.26632 1.51281 8.26632 3.37212C8.26713 5.2317 9.77994 6.74423 11.6384 6.74423Z" fill="#1D1D1B"/>
<path fill-rule="evenodd" clip-rule="evenodd" d="M10.3953 2.81216C10.4865 2.81216 10.5712 2.76763 10.6212 2.69132C10.8482 2.35188 11.23 2.14822 11.6384 2.14822C11.7891 2.14822 11.91 2.02711 11.91 1.87667C11.91 1.72705 11.7891 1.60512 11.6384 1.60512C11.0486 1.60512 10.4982 1.89894 10.1704 2.38881C10.1142 2.47272 10.1088 2.57971 10.1566 2.66797C10.2033 2.75704 10.2956 2.81216 10.3953 2.81216Z" fill="#1D1D1B"/>
<path fill-rule="evenodd" clip-rule="evenodd" d="M17.411 16.3398C17.3358 16.3229 17.2552 16.2974 17.1989 16.2795C13.5458 14.3563 13.4184 14.3531 13.2571 14.3531C13.1075 14.3531 12.9644 14.4082 12.8615 14.5174C12.7585 14.6257 12.7056 14.7582 12.7151 14.9079L12.7947 16.2211C12.7873 16.6423 12.4403 16.9138 11.999 16.9138H1.9147C1.45334 16.9138 1.0862 16.7186 1.0862 16.2974V9.19878C1.0862 8.73959 1.49027 8.22528 1.9147 8.22528V8.22419H11.999C12.4256 8.22419 12.7862 8.65052 12.7947 9.09288L12.7151 10.2649C12.7045 10.4156 12.7575 10.5639 12.8593 10.6744C12.9622 10.7846 13.1064 10.8474 13.2571 10.8474C13.4342 10.8474 13.482 10.8474 17.2318 8.84034C17.3059 8.80531 17.3621 8.78413 17.4037 8.77245C17.4099 8.82133 17.4143 8.89248 17.4121 8.99947L17.411 16.3398ZM18.1545 7.94721C17.9764 7.76581 17.7548 7.66832 17.4843 7.66832C17.2647 7.66832 17.0281 7.72671 16.7406 7.86547C15.785 8.37571 14.8269 8.87971 13.867 9.38018L13.8798 9.17652C13.8809 9.16403 13.8819 9.12357 13.8819 9.10972C13.8819 8.05338 13.0377 7.13907 11.999 7.13907H1.9147C0.894217 7.13907 0 8.14245 0 9.19878V16.2974C0 17.3135 0.859187 18 1.9147 18H11.999C13.0461 18 13.867 17.2543 13.8809 16.2295C13.8798 16.2317 13.8798 16.2325 13.8798 16.2306L13.8523 15.7787C14.5736 16.1404 15.6948 16.7218 16.7332 17.269C16.7628 17.2848 16.7905 17.2989 16.8223 17.3084C17.1055 17.3953 17.3304 17.4558 17.5479 17.4569C17.9351 17.4537 18.1695 17.2649 18.283 17.1069C18.4187 16.9201 18.4654 16.6781 18.4654 16.3514V9.01657C18.4654 8.80015 18.4929 8.29099 18.1545 7.94721Z" fill="#1D1D1B"/>
<path fill-rule="evenodd" clip-rule="evenodd" d="M13.8798 16.2304L13.8809 16.2136C13.8809 16.2198 13.8798 16.225 13.8798 16.2304Z" fill="#1D1D1B"/>
<path fill-rule="evenodd" clip-rule="evenodd" d="M17.5553 17.458L17.5479 17.4569L17.5392 17.458H17.5553Z" fill="#1D1D1B"/>
<path fill-rule="evenodd" clip-rule="evenodd" d="M4.91968 8.76726H2.61367C2.0684 8.76726 1.6293 9.43962 1.6293 9.94254V11.3226C1.6293 11.4722 1.75014 11.5928 1.90085 11.5928C2.05048 11.5928 2.1724 11.4722 2.1724 11.3212V9.94118C2.1724 9.68891 2.41544 9.31145 2.61367 9.31145H4.91968C5.07039 9.31145 5.19123 9.18925 5.19123 9.03882C5.19123 8.88919 5.07039 8.76726 4.91968 8.76726Z" fill="#1D1D1B"/>
<path fill-rule="evenodd" clip-rule="evenodd" d="M6.27743 8.76837H6.00588C5.85626 8.76837 5.73433 8.88922 5.73433 9.03993C5.73433 9.18928 5.85626 9.31148 6.00588 9.31148H6.27743C6.42814 9.31148 6.54898 9.18928 6.54898 9.03993C6.54898 8.88922 6.42814 8.76837 6.27743 8.76837Z" fill="#1D1D1B"/>
</svg>
