<svg width="20" height="20" viewBox="0 0 20 20" fill="none" xmlns="http://www.w3.org/2000/svg">
<mask id="mask0_7_8876" style="mask-type:luminance" maskUnits="userSpaceOnUse" x="0" y="0" width="20" height="20">
<path fill-rule="evenodd" clip-rule="evenodd" d="M0 0H19.9999V20H0V0Z" fill="white"/>
</mask>
<g mask="url(#mask0_7_8876)">
<path fill-rule="evenodd" clip-rule="evenodd" d="M1.04929 11.3421L19.6208 1.34209C19.9079 1.18851 20.0529 0.85637 19.9751 0.541369C19.8965 0.222797 19.6122 0.00279612 19.2858 -6.10353e-05H15V1.42851H16.4286L0.379287 10.0864L1.04929 11.3421ZM15.7143 18.5714H18.5715V7.14282H15.7143V18.5714ZM19.2858 5.71424H15C14.6065 5.71424 14.2858 6.03496 14.2858 6.42853V19.2857C14.2858 19.6793 14.6065 20 15 20H19.2858C19.6793 20 20.0001 19.6793 20.0001 19.2857V6.42853C20.0001 6.03496 19.6793 5.71424 19.2858 5.71424ZM8.57145 18.5714H11.4286V9.99997H8.57145V18.5714ZM7.85717 8.57139C7.46288 8.57139 7.14288 8.89211 7.14288 9.28568V19.2857C7.14288 19.6793 7.46288 20 7.85717 20H12.1429C12.5365 20 12.8572 19.6793 12.8572 19.2857V9.28568C12.8572 8.89211 12.5365 8.57139 12.1429 8.57139H7.85717ZM1.42858 18.5714H4.28573V14.2857H1.42858V18.5714ZM0.714288 20H5.00002C5.39359 20 5.7143 19.6793 5.7143 19.2857V13.5714C5.7143 13.1778 5.39359 12.8571 5.00002 12.8571H0.714288C0.320001 12.8571 0 13.1778 0 13.5714V19.2857C0 19.6793 0.320001 20 0.714288 20Z" fill="#1D1D1B"/>
</g>
</svg>
