<svg width="60" height="60" viewBox="0 0 60 60" fill="none" xmlns="http://www.w3.org/2000/svg">
<path fill-rule="evenodd" clip-rule="evenodd" d="M0 40.0003H3.99993V0H0V40.0003Z" fill="#41EAD4"/>
<path fill-rule="evenodd" clip-rule="evenodd" d="M7.99987 40.0003H11.9998V10.0008H7.99987V40.0003Z" fill="#FF9F1C"/>
<path fill-rule="evenodd" clip-rule="evenodd" d="M15.9997 40.0003H19.9997V6.00088H15.9997V40.0003Z" fill="#1B98E0"/>
<path fill-rule="evenodd" clip-rule="evenodd" d="M23.9996 40.0003H27.9995V22.0006H23.9996V40.0003Z" fill="#F71735"/>
<path fill-rule="evenodd" clip-rule="evenodd" d="M31.9995 42.0003H0V40.0003H30.9995V20.0007C30.9995 19.4497 31.4485 19.0007 31.9995 19.0007C32.5505 19.0007 32.9995 19.4497 32.9995 20.0007V41.0003C32.9995 41.5513 32.5505 42.0003 31.9995 42.0003Z" fill="#4F5D75"/>
<path fill-rule="evenodd" clip-rule="evenodd" d="M14.9218 51.9103C9.77684 51.0663 8.93385 50.2233 8.08987 45.0784C8.08187 45.0314 8.04687 45.0004 7.99987 45.0004C7.95287 45.0004 7.91787 45.0314 7.90987 45.0784C7.06588 50.2233 6.2229 51.0663 1.07798 51.9103C1.03098 51.9183 0.999984 51.9533 0.999984 52.0003C0.999984 52.0473 1.03098 52.0823 1.07798 52.0903C6.2229 52.9333 7.06588 53.7773 7.90987 58.9222C7.91787 58.9692 7.95287 59.0002 7.99987 59.0002C8.04687 59.0002 8.08187 58.9692 8.08987 58.9222C8.93385 53.7773 9.77684 52.9333 14.9218 52.0903C14.9688 52.0823 14.9998 52.0473 14.9998 52.0003C14.9998 51.9533 14.9688 51.9183 14.9218 51.9103ZM58.921 7.91103C53.7761 7.06704 52.9331 6.22406 52.0892 1.07914C52.0812 1.03214 52.0462 1.00114 51.9992 1.00114C51.9522 1.00114 51.9172 1.03214 51.9092 1.07914C51.0662 6.22406 50.2222 7.06704 45.0773 7.91103C45.0303 7.91903 44.9993 7.95403 44.9993 8.00103C44.9993 8.04803 45.0303 8.08303 45.0773 8.09103C50.2222 8.93501 51.0662 9.778 51.9092 14.9229C51.9172 14.9699 51.9522 15.0009 51.9992 15.0009C52.0462 15.0009 52.0812 14.9699 52.0892 14.9229C52.9331 9.778 53.7761 8.93501 58.921 8.09103C58.968 8.08303 58.999 8.04803 58.999 8.00103C58.999 7.95403 58.968 7.91903 58.921 7.91103Z" fill="#1B98E0"/>
<path fill-rule="evenodd" clip-rule="evenodd" d="M43.7103 42.0003H50.2882C55.6511 42.0003 59.999 46.3482 59.999 51.7111V60H33.9994V51.7111C33.9994 46.3482 38.3474 42.0003 43.7103 42.0003Z" fill="#2D3142"/>
<path fill-rule="evenodd" clip-rule="evenodd" d="M50.1087 52.0001L46.9997 47.7152L43.8898 52.0001L42.9998 42.0003H50.9997L50.1087 52.0001Z" fill="#247BA0"/>
<path fill-rule="evenodd" clip-rule="evenodd" d="M46.9992 48.0002L48.9992 42.0003H44.9993L46.9992 48.0002Z" fill="#F71735"/>
<path fill-rule="evenodd" clip-rule="evenodd" d="M54.9991 60H52.9991V51.0001C52.9991 50.4492 53.4481 50.0002 53.9991 50.0002C54.5501 50.0002 54.9991 50.4492 54.9991 51.0001V60ZM40.9993 60H38.9994V51.0001C38.9994 50.4492 39.4484 50.0002 39.9993 50.0002C40.5503 50.0002 40.9993 50.4492 40.9993 51.0001V60Z" fill="#4F5D75"/>
<path fill-rule="evenodd" clip-rule="evenodd" d="M53.9211 30.8794V31.4303C55.1511 31.5203 56.0811 32.5863 55.9991 33.8203C56.0071 34.4423 55.7881 35.0433 55.3901 35.5203C55.0261 35.9573 54.4871 36.2153 53.9211 36.2193C53.8511 38.5592 52.4761 40.6602 50.3582 41.6602L48.4602 42.6492C47.5422 43.1172 46.4562 43.1172 45.5383 42.6492L43.6403 41.6602C42.5853 41.1292 41.6873 40.3322 41.0303 39.3522C40.4133 38.4222 40.0853 37.3322 40.0773 36.2193C38.8864 36.0513 37.9994 35.0313 37.9994 33.8243C37.9994 32.6213 38.8864 31.5983 40.0773 31.4303V31.0003L48.6012 29.0004H51.0112L53.9211 30.8794Z" fill="#FFBF69"/>
<path fill-rule="evenodd" clip-rule="evenodd" d="M54.9991 32.0005C53.5731 31.9885 52.2181 31.3675 51.2722 30.3015L49.9992 31.0005L49.9092 29.0005C48.1042 30.9615 45.5463 32.0515 42.8863 32.0005H38.9994V29.6025C38.9994 25.6216 41.9293 24.0006 45.5463 24.0006H48.4522C52.0692 24.0006 54.9991 25.6256 54.9991 29.6025V32.0005Z" fill="#2D3142"/>
</svg>
