<svg width="12" height="12" viewBox="0 0 12 12" fill="none" xmlns="http://www.w3.org/2000/svg">
<path fill-rule="evenodd" clip-rule="evenodd" d="M6.58814 0.372791L7.92431 3.05654C8.02271 3.25093 8.20991 3.38713 8.4277 3.41953L11.4258 3.85572C11.601 3.88152 11.7606 3.97272 11.8662 4.11311C11.9742 4.25411 12.0186 4.42991 11.9928 4.6033C11.9718 4.7461 11.9034 4.8799 11.8008 4.9807L9.62768 7.08545C9.46868 7.23545 9.39608 7.45085 9.43328 7.66384L9.97027 10.6266C10.0285 10.9806 9.79208 11.3154 9.43328 11.388C9.28809 11.4114 9.13809 11.388 9.00669 11.3202L6.33015 9.9258C6.13095 9.825 5.89696 9.825 5.70016 9.9258L3.02361 11.3202C2.69242 11.496 2.28083 11.3742 2.10203 11.0508C2.03483 10.9218 2.01143 10.7742 2.03243 10.6314L2.56822 7.66864C2.60662 7.45805 2.53402 7.23965 2.37443 7.08965L0.201271 4.9873C0.0752737 4.8631 0.00207515 4.6945 0.00207515 4.51871C0.00207515 4.34291 0.0752737 4.17431 0.201271 4.05012C0.304469 3.94692 0.440066 3.87912 0.588263 3.86052L3.5864 3.42433C3.8036 3.39133 3.99079 3.25813 4.08739 3.06134L5.37857 0.372791C5.49076 0.145395 5.72776 0.000198288 5.98815 0.00499819H6.06795C6.29295 0.0331976 6.48974 0.171195 6.58814 0.372791Z" fill="#FCCB40"/>
<path fill-rule="evenodd" clip-rule="evenodd" d="M6.00453 9.84611C5.88693 9.84611 5.77713 9.88571 5.67153 9.93731L3.00459 11.3275C2.6836 11.4889 2.278 11.3599 2.10221 11.0509C2.03441 10.9243 2.00861 10.7791 2.03201 10.6357L2.5684 7.68075C2.6038 7.46476 2.5312 7.24936 2.374 7.09697L0.196646 4.99221C-0.0655487 4.73481 -0.0655487 4.31482 0.196646 4.05503C0.299844 3.95423 0.433641 3.88823 0.576438 3.86723L3.58598 3.42444C3.81517 3.39144 3.98197 3.26304 4.08697 3.06145L5.39494 0.342303C5.49334 0.122107 5.82873 -0.0302895 6.00933 0.00510983C6.00453 0.185706 6.00453 9.72671 6.00453 9.84611Z" fill="#FAC025"/>
</svg>
