<svg width="28" height="28" viewBox="0 0 28 28" fill="none" xmlns="http://www.w3.org/2000/svg">
<path d="M13.8268 16.3333C13.371 16.3333 12.9255 16.4702 12.5465 16.7266C12.1675 16.9829 11.8722 17.3474 11.6977 17.7737C11.5233 18.2001 11.4777 18.6692 11.5666 19.1219C11.6555 19.5745 11.875 19.9902 12.1973 20.3166C12.5196 20.6429 12.9302 20.8651 13.3772 20.9552C13.8242 21.0452 14.2876 20.999 14.7087 20.8224C15.1298 20.6458 15.4897 20.3467 15.7429 19.963C15.9961 19.5793 16.1313 19.1281 16.1313 18.6667C16.1313 18.0478 15.8885 17.4543 15.4563 17.0167C15.0241 16.5792 14.438 16.3333 13.8268 16.3333Z" fill="#88889D"/>
<path d="M15.1071 11.2734C14.7281 11.5298 14.2826 11.6667 13.8268 11.6667C13.2156 11.6667 12.6295 11.4208 12.1973 10.9832C11.7651 10.5457 11.5223 9.95216 11.5223 9.33332C11.5223 8.87183 11.6575 8.4207 11.9107 8.03699C12.1639 7.65327 12.5238 7.3542 12.9449 7.1776C13.366 7.001 13.8294 6.95479 14.2764 7.04482C14.7234 7.13485 15.134 7.35708 15.4563 7.6834C15.7786 8.00973 15.9981 8.42549 16.087 8.87811C16.1759 9.33073 16.1303 9.79989 15.9558 10.2262C15.7814 10.6526 15.4861 11.017 15.1071 11.2734Z" fill="#88889D"/>
</svg>
