<svg width="18" height="16" viewBox="0 0 18 16" fill="none" xmlns="http://www.w3.org/2000/svg">
<path fill-rule="evenodd" clip-rule="evenodd" d="M11.5055 6.12022C10.9116 6.12022 10.4291 5.55191 10.4291 4.85246C10.4291 4.15301 10.9116 3.5847 11.5055 3.5847C12.0993 3.5847 12.5818 4.15301 12.5818 4.85246C12.5818 5.55191 12.0993 6.12022 11.5055 6.12022ZM11.5055 2.4918C10.392 2.4918 9.46416 3.5847 9.46416 4.89617C9.46416 6.20765 10.3549 7.30055 11.5055 7.30055C12.6189 7.30055 13.5467 6.20765 13.5467 4.89617C13.5467 3.5847 12.6189 2.4918 11.5055 2.4918ZM16.7015 10.9377L14.1035 8.43716L11.409 11.0251L5.71561 4.72131L1.00209 9.86667V1.79235C1.00209 1.44262 1.22477 1.18033 1.52169 1.18033H16.1819C16.4788 1.18033 16.7015 1.44262 16.7015 1.79235V10.9377ZM16.7015 14.1202C16.7015 14.4699 16.4788 14.7322 16.1819 14.7322H14.7604L12.1438 11.8339L14.1035 9.9235L16.7015 12.3891V14.1202ZM1.52169 14.7322C1.22477 14.7322 1.00209 14.4699 1.00209 14.1202V11.4273L5.71561 6.29508L13.3426 14.7322H1.52169ZM16.219 0H1.5588C0.705173 0 0 0.830601 0 1.83607V14.1639C0 15.1694 0.705173 16 1.5588 16H16.219C17.0726 16 17.7778 15.1694 17.7778 14.1639V1.83607C17.7778 0.830601 17.0726 0 16.219 0Z" fill="#FF9300"/>
</svg>
