<svg width="15" height="23" viewBox="0 0 15 23" fill="none" xmlns="http://www.w3.org/2000/svg">
<path fill-rule="evenodd" clip-rule="evenodd" d="M2.66129 1.45161C1.99258 1.45161 1.45161 1.99258 1.45161 2.66129V20.0807C1.45161 20.7494 1.99258 21.2903 2.66129 21.2903H12.3387C13.0074 21.2903 13.5484 20.7494 13.5484 20.0807V2.66129C13.5484 1.99258 13.0074 1.45161 12.3387 1.45161H2.66129ZM0 2.66129C0 1.19032 1.19032 0 2.66129 0H12.3387C13.8097 0 15 1.19032 15 2.66129V20.0807C15 21.5516 13.8097 22.742 12.3387 22.742H2.66129C1.19032 22.742 0 21.5516 0 20.0807V2.66129Z" fill="#1D1D1B"/>
<path fill-rule="evenodd" clip-rule="evenodd" d="M4.8387 19.1129C4.8387 18.7123 5.16386 18.3871 5.56451 18.3871H9.43548C9.83612 18.3871 10.1613 18.7123 10.1613 19.1129C10.1613 19.5136 9.83612 19.8387 9.43548 19.8387H5.56451C5.16386 19.8387 4.8387 19.5136 4.8387 19.1129ZM4.80483 1.45161L4.97902 1.8029C5.02064 1.88226 5.10289 1.93549 5.19386 1.93549H9.80612C9.89709 1.93549 9.97935 1.88226 10.021 1.8029L10.1952 1.45161H4.80483ZM3.01257 0.343549C3.14515 0.132581 3.37547 0 3.62902 0H11.371C11.6206 0 11.8548 0.132581 11.9874 0.343549C12.119 0.559355 12.1306 0.824517 12.0213 1.05097L11.3177 2.44936C11.0342 3.0242 10.4448 3.3871 9.80612 3.3871H5.19386C4.55515 3.3871 3.9658 3.0242 3.68225 2.44936L2.9787 1.05097C2.86547 0.824517 2.88096 0.555484 3.01257 0.343549Z" fill="#1D1D1B"/>
</svg>
