<svg width="12" height="12" viewBox="0 0 12 12" fill="none" xmlns="http://www.w3.org/2000/svg">
<path fill-rule="evenodd" clip-rule="evenodd" d="M6.58826 0.372852L7.92444 3.0566C8.02283 3.25099 8.21003 3.38719 8.42783 3.41959L11.426 3.85578C11.6012 3.88158 11.7608 3.97278 11.8664 4.11318C11.9744 4.25417 12.0188 4.42997 11.993 4.60337C11.972 4.74616 11.9036 4.87996 11.801 4.98076L9.6278 7.08552C9.4688 7.23551 9.39621 7.45091 9.43341 7.6639L9.97039 10.6266C10.0286 10.9806 9.7922 11.3154 9.43341 11.388C9.28821 11.4114 9.13821 11.388 9.00681 11.3202L6.33027 9.92586C6.13107 9.82506 5.89708 9.82506 5.70028 9.92586L3.02374 11.3202C2.69254 11.496 2.28095 11.3742 2.10215 11.0508C2.03496 10.9218 2.01156 10.7742 2.03256 10.6314L2.56835 7.6687C2.60674 7.45811 2.53415 7.23971 2.37455 7.08972L0.201393 4.98736C0.0753957 4.86316 0.00219722 4.69456 0.00219722 4.51877C0.00219722 4.34297 0.0753957 4.17437 0.201393 4.05018C0.304591 3.94698 0.440188 3.87918 0.588385 3.86058L3.58652 3.42439C3.80372 3.39139 3.99092 3.25819 4.08751 3.0614L5.37869 0.372852C5.49089 0.145456 5.72788 0.000259321 5.98828 0.00505922H6.06807C6.29307 0.0332586 6.48987 0.171256 6.58826 0.372852Z" fill="#FF9C07"/>
<path fill-rule="evenodd" clip-rule="evenodd" d="M6.00453 9.84611C5.88693 9.84611 5.77713 9.88571 5.67153 9.93731L3.00459 11.3275C2.6836 11.4889 2.278 11.3599 2.10221 11.0509C2.03441 10.9243 2.00861 10.7791 2.03201 10.6357L2.5684 7.68075C2.6038 7.46476 2.5312 7.24936 2.374 7.09697L0.196646 4.99221C-0.0655487 4.73481 -0.0655487 4.31482 0.196646 4.05503C0.299844 3.95423 0.433641 3.88823 0.576438 3.86723L3.58598 3.42444C3.81517 3.39144 3.98197 3.26304 4.08697 3.06145L5.39494 0.342303C5.49334 0.122107 5.82873 -0.0302895 6.00933 0.00510983C6.00453 0.185706 6.00453 9.72671 6.00453 9.84611Z" fill="#FF9C07"/>
</svg>
