<svg width="14" height="14" viewBox="0 0 14 14" fill="none" xmlns="http://www.w3.org/2000/svg">
<path fill-rule="evenodd" clip-rule="evenodd" d="M2.046 13.9829H10.8146C11.9469 13.9806 12.8606 13.0605 12.8606 11.9299V7.52284C12.8606 7.20074 12.5981 6.93826 12.276 6.93826C11.9539 6.93826 11.6914 7.20074 11.6914 7.52284V11.9299C11.6938 12.4163 11.3009 12.8114 10.8146 12.8138H2.046C1.55963 12.8114 1.1668 12.4163 1.16914 11.9299V3.17538C1.1668 2.68902 1.55963 2.29385 2.046 2.29151H6.43028C6.75238 2.29151 7.01485 2.02904 7.01485 1.70694C7.01485 1.38484 6.75238 1.12237 6.43028 1.12237H2.046C0.913099 1.12471 0 2.04482 0 3.17538V11.9299C0 13.0605 0.913099 13.9806 2.046 13.9829Z" fill="white"/>
<path fill-rule="evenodd" clip-rule="evenodd" d="M6.63149 6.53418L10.5908 2.56553L11.408 3.38744L7.44638 7.35843L6.39824 7.58933L6.63149 6.53418ZM11.833 1.32332C12.0633 1.10177 12.4287 1.10177 12.6596 1.32332C12.8858 1.55364 12.8858 1.919 12.6596 2.1499L12.2463 2.5632L11.4197 1.73661L11.833 1.32332ZM5.52606 6.11622L5.06484 8.22827C5.02392 8.42469 5.08296 8.62812 5.22501 8.76724C5.36648 8.90462 5.56698 8.96366 5.76106 8.92508L7.87136 8.46385C7.97834 8.43872 8.07888 8.38377 8.15897 8.30368L13.4862 2.97649C14.1713 2.29137 14.1713 1.18186 13.4862 0.496739C12.7923 -0.16558 11.7003 -0.16558 11.0064 0.496739L5.68799 5.82861C5.60849 5.90869 5.5512 6.00632 5.52606 6.11622Z" fill="white"/>
</svg>
