<svg width="55" height="60" viewBox="0 0 55 60" fill="none" xmlns="http://www.w3.org/2000/svg">
<path fill-rule="evenodd" clip-rule="evenodd" d="M52.1143 46H2.74286C1.2288 46 0 44.656 0 43V3C0 1.344 1.2288 0 2.74286 0H52.1143C53.6284 0 54.8572 1.344 54.8572 3V43C54.8572 44.656 53.6284 46 52.1143 46Z" fill="#0455BF"/>
<path fill-rule="evenodd" clip-rule="evenodd" d="M46.6286 42H5.48572C4.47634 42 3.65714 41.104 3.65714 40V6.00001C3.65714 4.89601 4.47634 4.00001 5.48572 4.00001H45.7143C46.7237 4.00001 47.5429 4.89601 47.5429 6.00001V41C47.5429 41.552 47.1333 42 46.6286 42Z" fill="#FDFEFF"/>
<path fill-rule="evenodd" clip-rule="evenodd" d="M5.48572 40V6.00001C5.48572 4.89601 6.30492 4.00001 7.31429 4.00001H5.48572C4.47634 4.00001 3.65714 4.89601 3.65714 6.00001V40C3.65714 41.104 4.47634 42 5.48572 42H7.31429C6.30492 42 5.48572 41.104 5.48572 40Z" fill="#DFEAEF"/>
<path fill-rule="evenodd" clip-rule="evenodd" d="M35.6572 23C35.6572 27.9693 31.972 32 27.4286 32C22.8852 32 19.2 27.9693 19.2 23C19.2 18.0307 22.8852 14 27.4286 14C31.972 14 35.6572 18.0307 35.6572 23Z" fill="#0455BF"/>
<path fill-rule="evenodd" clip-rule="evenodd" d="M31.0857 27C31.0857 26.2867 31.438 25.6307 32 25.276C30.7858 24.4893 29.2474 25.4533 29.2572 27V30C29.8716 30 30.486 29.9213 31.0857 29.7707V27Z" fill="#004787"/>
<path fill-rule="evenodd" clip-rule="evenodd" d="M29.2572 30C26.162 30.0054 23.3289 28.1094 21.9234 25.0934C20.519 22.0787 20.7811 18.4587 22.5999 15.7187C20.6482 17.2654 19.4146 19.6667 19.2244 22.292C19.033 24.9174 19.9046 27.5 21.6101 29.364C23.3094 31.224 25.6719 32.1774 28.071 31.9694C30.4713 31.76 32.6717 30.412 34.0809 28.276C32.6815 29.396 30.9906 30 29.2572 30Z" fill="#004787"/>
<path fill-rule="evenodd" clip-rule="evenodd" d="M25.6 27C25.0953 27 24.6857 26.552 24.6857 26V20C24.6857 19.2547 25.4001 18.7707 26.0096 19.104L31.4953 22.104C32.0524 22.412 32.1719 23.224 31.733 23.7027C31.5904 23.86 31.5904 23.86 26.0096 26.8907C25.8804 26.964 25.7426 27 25.6 27Z" fill="#FEBC00"/>
<path fill-rule="evenodd" clip-rule="evenodd" d="M31.4952 22.1041L31.316 22.0055L27.8381 23.8961C27.2285 24.2295 26.5142 23.7455 26.5142 23.0001V19.3801L26.0095 19.1041C25.4 18.7708 24.6856 19.2548 24.6856 20.0001V26.0001C24.6807 26.7455 25.3951 27.2295 26.0046 26.9015C31.5805 23.8695 31.5805 23.8695 31.728 23.7135C32.1669 23.2295 32.0474 22.4161 31.4903 22.1148L31.4952 22.1041Z" fill="#EDAA03"/>
<path fill-rule="evenodd" clip-rule="evenodd" d="M17.3714 34H9.14286V36H34.7429V34H17.3714Z" fill="#0455BF"/>
<path fill-rule="evenodd" clip-rule="evenodd" d="M51.2 21C52.2094 21 53.0286 22.104 53.0286 23C53.0286 24.104 52.2094 25 51.2 25C50.1906 25 49.3714 23.896 49.3714 23C49.3714 21.896 50.1906 21 51.2 21Z" fill="#FEBC00"/>
<path fill-rule="evenodd" clip-rule="evenodd" d="M52.1143 24C50.7855 24.0053 49.9005 22.5 50.4527 21.1827C49.2812 21.7493 48.9948 23.432 49.9005 24.4213C50.8099 25.416 52.3435 25.104 52.8665 23.8227C52.6287 23.9373 52.3715 24 52.1143 24Z" fill="#EDAA03"/>
<path fill-rule="evenodd" clip-rule="evenodd" d="M43.8857 40C42.8764 40 42.0572 40.896 42.0572 42V39C42.0572 36.3333 38.4 36.3333 38.4 39V35C38.4 32.3333 34.7429 32.3333 34.7429 35V27C34.7429 24.3333 31.0857 24.3333 31.0857 27V47.172C31.0857 48.2813 29.8618 48.8333 29.1474 48.052L25.6 44.172C24.8905 43.3693 23.7141 43.36 22.9949 44.1507C22.272 44.9373 22.2805 46.224 23.0144 47L26.891 51.2453L28.5233 53.0267C30.2141 54.8747 31.1662 57.3854 31.1662 60H43.3481V59.6253C43.3481 58.188 43.7614 56.7867 44.5282 55.6147C45.2998 54.448 45.7143 53.0467 45.7143 51.6093V42C45.7143 40.896 44.8951 40 43.8857 40Z" fill="#ECC19C"/>
<path fill-rule="evenodd" clip-rule="evenodd" d="M14.6286 37C12.9999 37 12.1856 34.844 13.3339 33.584C14.4859 32.328 16.4571 33.2187 16.4571 35C16.4571 36.104 15.6379 37 14.6286 37Z" fill="#FEBC00"/>
<path fill-rule="evenodd" clip-rule="evenodd" d="M15.5429 36C14.2141 36.0054 13.3291 34.5 13.8813 33.1827C12.7098 33.7494 12.4233 35.432 13.3291 36.4214C14.2385 37.416 15.772 37.104 16.295 35.8227C16.0573 35.9374 15.8001 36 15.5429 36Z" fill="#EDAA03"/>
<path fill-rule="evenodd" clip-rule="evenodd" d="M23.0143 44.1719C23.1289 44.0519 23.2569 43.9479 23.391 43.8599C22.0232 42.9839 20.3568 44.3079 20.6908 45.9999H22.5194C22.3901 45.3385 22.5766 44.6505 23.0143 44.1719ZM29.257 45.9999H31.0856V41.9999H29.257V45.9999Z" fill="#004787"/>
<mask id="mask0_7_10101" style="mask-type:luminance" maskUnits="userSpaceOnUse" x="0" y="0" width="55" height="60">
<path fill-rule="evenodd" clip-rule="evenodd" d="M0 60H54.8572V0H0V60Z" fill="white"/>
</mask>
<g mask="url(#mask0_7_10101)">
<path fill-rule="evenodd" clip-rule="evenodd" d="M29.2572 42H31.0857V36H29.2572V42ZM31.0857 31.052C30.8712 31.1667 30.653 31.276 30.4335 31.3694C30.3567 31.4014 30.2812 31.432 30.1995 31.464C29.9947 31.5467 29.7862 31.6147 29.5717 31.6774C29.4815 31.7027 29.3815 31.7347 29.2852 31.76L29.2523 31.7707V34H31.0808L31.0857 31.052Z" fill="#DFEAEF"/>
<path fill-rule="evenodd" clip-rule="evenodd" d="M31.0857 29.7708C30.486 29.9215 29.8716 30.0002 29.2572 30.0002V31.7655L29.2901 31.7602C29.6814 31.6562 30.0617 31.5255 30.4335 31.3695C30.6566 31.2708 30.876 31.1722 31.0857 31.0468V29.7708ZM29.2572 36.0002H31.0857V34.0002H29.2572V36.0002Z" fill="#004787"/>
</g>
</svg>
