<svg width="22" height="22" viewBox="0 0 22 22" fill="none" xmlns="http://www.w3.org/2000/svg">
<path fill-rule="evenodd" clip-rule="evenodd" d="M21.5565 12.3641C21.5565 5.54714 16.0093 0 9.19105 0V1.25729C15.3156 1.25729 20.2992 6.23991 20.2992 12.3641H21.5565ZM1.55902 7.20487L3.38239 5.3815C3.39591 5.36798 3.42043 5.36075 3.45217 5.36075C3.52352 5.36075 3.63165 5.39627 3.7272 5.49214L6.41497 8.17958C6.55358 8.31851 6.56584 8.48416 6.52561 8.52471L5.68794 9.36206C4.64565 10.4047 5.84636 12.6945 7.57041 14.4182C8.42851 15.2766 9.37147 15.9616 10.2274 16.3485C11.6358 16.9844 12.3343 16.5902 12.6253 16.2994L13.4639 15.4618C13.5032 15.4215 13.6689 15.4338 13.8078 15.5724L16.4953 18.2614C16.6342 18.4001 16.6464 18.5648 16.6072 18.605L14.7825 20.4284C14.2768 20.9357 13.0503 20.8348 11.5019 20.1584C9.70905 19.3763 7.71877 17.9433 5.89916 16.125C4.19491 14.4207 2.72672 12.3531 1.86831 10.4537C1.1746 8.91887 1.05924 7.70464 1.55902 7.20487ZM0.722921 10.9704C1.64011 13.0038 3.20292 15.2066 5.01026 17.0139C6.938 18.9416 9.06595 20.4677 10.9997 21.3113C12.052 21.7705 12.995 22 13.7867 22C14.5763 22 15.2172 21.773 15.6714 21.3173L17.4961 19.4942C18.0499 18.9391 18.0005 17.9877 17.3845 17.3725L14.6967 14.6835C14.0803 14.0684 13.1289 14.0194 12.575 14.5729L11.7377 15.4102C11.5054 15.5834 10.0715 15.1415 8.45931 13.5293C6.84464 11.9159 6.40271 10.4807 6.57716 10.251L7.41577 9.41361C7.96928 8.85883 7.91899 7.90581 7.30387 7.29068L4.61485 4.60324C3.99972 3.98811 3.04701 3.9375 2.49318 4.4926L0.670115 6.31597C-0.241102 7.22562 -0.222557 8.87958 0.722921 10.9704Z" fill="#FF9300"/>
<path fill-rule="evenodd" clip-rule="evenodd" d="M9.42432 3.43438V4.69166C13.7846 4.69166 17.3317 8.23878 17.3317 12.5975H18.589C18.589 7.54507 14.4783 3.43438 9.42432 3.43438Z" fill="#FF9300"/>
<path fill-rule="evenodd" clip-rule="evenodd" d="M14.1307 12.5974H15.3879C15.3879 9.31059 12.7124 6.63509 9.42432 6.63509V7.89237C12.02 7.89237 14.1307 10.003 14.1307 12.5974Z" fill="#FF9300"/>
</svg>
