<svg width="59" height="117" viewBox="0 0 59 117" fill="none" xmlns="http://www.w3.org/2000/svg">
<path fill-rule="evenodd" clip-rule="evenodd" d="M48.7953 51.5391C46.9803 51.5391 45.5484 50.1176 45.5484 48.2943V45.0558H13.0022V48.2943C13.0022 50.1176 11.5828 51.5391 9.75948 51.5391H0V80.2418C0 97.4894 11.7022 112.585 28.4913 116.812L29.268 117L30.0383 116.812C46.8338 112.585 58.5338 97.4727 58.5338 80.2418V51.5391H48.7953Z" fill="#F5F5F5"/>
<path fill-rule="evenodd" clip-rule="evenodd" d="M58.5508 51.5391V80.2418C58.5508 97.4894 46.8487 112.585 30.0616 116.812L29.2871 117V45.0307H45.5487V48.2775C45.5487 50.1009 46.9806 51.5244 48.7955 51.5244H58.5508V51.5391Z" fill="#E7E7F2"/>
<path fill-rule="evenodd" clip-rule="evenodd" d="M48.7953 58.0494C44.5687 58.0494 40.9283 55.3091 39.6283 51.5389H18.9475C17.5826 55.4326 13.9044 58.0494 9.77205 58.0494H6.53564V80.2584C6.53564 94.2507 15.8241 106.558 29.3078 110.343C42.7684 106.573 52.082 94.2507 52.082 80.2584V58.0494H48.7953Z" fill="#26BFA6"/>
<path fill-rule="evenodd" clip-rule="evenodd" d="M52.0416 58.0494V80.2584C52.0416 94.2507 42.7447 106.558 29.2695 110.343V51.5389H39.6046C40.9067 55.3091 44.5534 58.0494 48.7779 58.0494H52.0416Z" fill="#26BFA6"/>
<path fill-rule="evenodd" clip-rule="evenodd" d="M50.05 13.5255L36.3779 11.5138L30.2693 0L24.1524 11.5138L10.4908 13.5255L20.3654 23.1594L18.0187 36.6765L30.2442 30.2895L42.4697 36.6765L40.1314 23.1594L50.05 13.5255Z" fill="#FFB62A"/>
<path fill-rule="evenodd" clip-rule="evenodd" d="M41.3046 76.8093L29.2675 88.9092L26.0227 92.1581L17.2304 83.3009L21.7961 78.7394L26.0227 82.899L29.2675 79.6521L36.741 72.2435L41.3046 76.8093Z" fill="#F5F5F5"/>
<path fill-rule="evenodd" clip-rule="evenodd" d="M42.4962 36.6767L30.2707 30.2897V0.000183324L36.3771 11.5139L50.0492 13.5257L40.1725 23.1596L42.4962 36.6767Z" fill="#FFB62A"/>
<path fill-rule="evenodd" clip-rule="evenodd" d="M41.3046 76.8092L29.2675 88.9091V79.6793L36.741 72.2707L41.3046 76.8092Z" fill="#E7E7F2"/>
</svg>
